<svg width="50" height="46" viewBox="0 0 50 46" fill="none" xmlns="http://www.w3.org/2000/svg">
<g clip-path="url(#clip0_127_211)">
<g clip-path="url(#clip1_127_211)">
<path d="M38.7435 37.316C39.3562 37.316 39.8529 36.8193 39.8529 36.2066C39.8529 35.5939 39.3562 35.0972 38.7435 35.0972C38.1308 35.0972 37.6341 35.5939 37.6341 36.2066C37.6341 36.8193 38.1308 37.316 38.7435 37.316Z" fill="#002140"/>
<path d="M46.551 20.9873C47.1126 20.9873 47.5679 20.532 47.5679 19.9703C47.5679 19.4087 47.1126 18.9534 46.551 18.9534C45.9893 18.9534 45.534 19.4087 45.534 19.9703C45.534 20.532 45.9893 20.9873 46.551 20.9873Z" fill="#002140"/>
<path d="M31.0969 27.593C31.7096 27.593 32.2063 27.0963 32.2063 26.4835C32.2063 25.8708 31.7096 25.3741 31.0969 25.3741C30.4842 25.3741 29.9875 25.8708 29.9875 26.4835C29.9875 27.0963 30.4842 27.593 31.0969 27.593Z" fill="#002140"/>
<path d="M44.7621 11.6877C44.7048 11.7806 44.616 11.8497 44.5118 11.8823C44.4077 11.9149 44.2953 11.9088 44.1953 11.8652C44.0876 11.8156 43.9807 11.7645 43.8745 11.7117C42.7346 11.1524 39.2677 9.45317 37.1127 10.6208C36.1133 11.1626 35.5031 12.2988 35.297 13.9971C35.2942 14.0212 35.2822 14.0415 35.2766 14.0646C35.2692 14.0905 35.2637 14.1155 35.2535 14.1395C35.2377 14.1689 35.2188 14.1965 35.1971 14.2218C35.1823 14.2403 35.1712 14.2606 35.1537 14.2763C35.1255 14.3006 35.0944 14.3214 35.0612 14.3383C35.0437 14.3484 35.0298 14.3614 35.0104 14.3688C34.9558 14.3914 34.8974 14.4033 34.8384 14.4039H30.4997C30.3948 14.8622 30.1377 15.2715 29.7704 15.565C29.403 15.8585 28.9471 16.0188 28.4769 16.0199C27.3305 16.0199 26.3986 15.088 26.3986 13.9417C26.3986 12.7953 27.3305 11.8624 28.4769 11.8624C29.4633 11.8624 30.2889 12.5558 30.4997 13.4794H34.4446C34.7386 11.6914 35.4828 10.4526 36.6708 9.80819C38.9562 8.56657 42.1975 9.89232 43.7673 10.6338C43.759 5.0479 39.2104 0.504883 33.6208 0.504883C31.3521 0.504883 29.1435 1.27407 27.361 2.6784C25.5759 1.27284 23.3705 0.50743 21.0984 0.504883C15.5051 0.504883 10.9547 5.0553 10.9547 10.6486C10.9547 10.6865 10.9575 10.7216 10.9584 10.7595C12.5282 10.0227 15.7695 8.7034 18.0475 9.94409C19.3233 10.6384 20.0925 12.0104 20.3357 14.0212C20.3366 14.0313 20.3329 14.0396 20.3338 14.0498C20.3338 14.0591 20.3394 14.0674 20.3394 14.0766V17.7626H23.7203C23.825 17.3041 24.082 16.8946 24.4494 16.601C24.8168 16.3073 25.2728 16.1468 25.7431 16.1457C26.8895 16.1457 27.8223 17.0785 27.8223 18.2249C27.8223 19.3713 26.8895 20.3041 25.7431 20.3041C25.2728 20.3029 24.8168 20.1424 24.4494 19.8488C24.082 19.5551 23.825 19.1456 23.7203 18.6871H19.8771C19.7545 18.6871 19.637 18.6384 19.5503 18.5517C19.4636 18.4651 19.4149 18.3475 19.4149 18.2249V14.1118C19.2078 12.4264 18.6004 11.2976 17.6065 10.7558C15.4608 9.58908 11.9929 11.2791 10.8521 11.8356C10.7042 11.9077 10.5905 11.9632 10.5184 11.9946C10.4626 12.0188 10.4027 12.0318 10.3419 12.0328C10.2812 12.0338 10.2209 12.0229 10.1644 12.0005C10.1079 11.9782 10.0563 11.945 10.0127 11.9027C9.96905 11.8605 9.93416 11.81 9.91003 11.7543C9.90541 11.7441 9.90726 11.733 9.90356 11.7219C8.32313 12.6697 7.01542 14.011 6.10803 15.615C5.20065 17.219 4.72459 19.0308 4.72632 20.8736C4.72632 25.192 7.33435 29.0582 11.2811 30.7122C12.3785 29.1304 14.3061 27.5781 17.1203 26.7156C17.0546 23.2866 15.6115 20.4335 13.9048 20.4335H10.0182C9.91519 20.8465 9.67745 21.2133 9.34257 21.4761C9.0077 21.7388 8.5948 21.8823 8.16918 21.8841C7.11432 21.8841 6.25638 21.0261 6.25638 19.9713C6.25638 18.9164 7.11432 18.0585 8.16918 18.0585C9.06318 18.0585 9.81018 18.6779 10.0182 19.509H13.9048C16.1375 19.509 17.9005 22.5294 18.0374 26.4678C19.2035 26.199 20.3946 26.0534 21.5912 26.0333C21.6937 25.5719 21.9502 25.1592 22.3186 24.8631C22.6869 24.5671 23.1451 24.4052 23.6177 24.4043C24.7641 24.4043 25.6969 25.3371 25.6969 26.4826C25.6969 27.628 24.7641 28.5609 23.6177 28.5609C23.1498 28.5596 22.696 28.4005 22.3296 28.1095C21.9632 27.8184 21.7057 27.4123 21.5986 26.9568C15.7788 27.0835 12.4903 29.8801 11.441 32.2894C11.4086 32.3585 11.3592 32.4183 11.2975 32.4633C11.2357 32.5082 11.1636 32.5368 11.0878 32.5464C10.998 33.1192 10.9532 33.6982 10.9538 34.278C10.9538 40.6552 16.1412 45.8445 22.5184 45.8445C23.969 45.8445 25.3807 45.5579 26.7333 45.0235C25.9576 40.4186 22.3613 36.8962 17.9884 36.691C17.8794 37.1441 17.6214 37.5475 17.2558 37.8366C16.8902 38.1256 16.4381 38.2834 15.972 38.2848C15.421 38.2843 14.8926 38.0652 14.503 37.6756C14.1133 37.2859 13.8942 36.7576 13.8937 36.2065C13.894 35.6553 14.113 35.1267 14.5027 34.7369C14.8923 34.347 15.4208 34.1278 15.972 34.1273C16.9677 34.1273 17.7998 34.8318 18.0022 35.7665C22.4029 35.9597 26.1 39.1788 27.3582 43.5702C28.6165 39.1779 32.3136 35.9597 36.7142 35.7665C36.8148 35.3028 37.0709 34.8874 37.44 34.5893C37.8091 34.2911 38.269 34.1281 38.7435 34.1273C39.2947 34.1278 39.8232 34.347 40.2129 34.7369C40.6026 35.1267 40.8216 35.6553 40.8218 36.2065C40.8213 36.7576 40.6022 37.2859 40.2126 37.6756C39.8229 38.0652 39.2946 38.2843 38.7435 38.2848C38.2776 38.2832 37.8257 38.1253 37.4603 37.8363C37.0949 37.5473 36.837 37.144 36.7281 36.691C32.3552 36.8962 28.7589 40.4167 27.9823 45.0226C29.3339 45.557 30.7447 45.8445 32.198 45.8445C38.5771 45.8445 43.7682 40.6562 43.7682 34.278C43.7682 33.7011 43.7229 33.1233 43.6332 32.5473C43.557 32.5382 43.4843 32.5098 43.4221 32.4648C43.3598 32.4199 43.31 32.3598 43.2773 32.2903C42.2234 29.8811 38.933 27.0835 33.1161 26.9568C33.0091 27.4127 32.7515 27.8191 32.3849 28.1103C32.0183 28.4016 31.5642 28.5606 31.096 28.5618C29.9505 28.5618 29.0177 27.629 29.0177 26.4835C29.0177 25.338 29.9505 24.4052 31.096 24.4052C31.5685 24.4061 32.0266 24.5678 32.3949 24.8637C32.7632 25.1596 33.0198 25.5721 33.1225 26.0333C34.4224 26.0601 35.6076 26.2145 36.6782 26.4678C36.815 22.5294 38.5799 19.509 40.8144 19.509H44.701C44.804 19.0961 45.0418 18.7292 45.3767 18.4665C45.7115 18.2038 46.1244 18.0602 46.5501 18.0585C47.6049 18.0585 48.4629 18.9164 48.4629 19.9713C48.4629 21.0261 47.604 21.8841 46.5501 21.8841C45.6551 21.8841 44.9091 21.2647 44.701 20.4335H40.8144C39.1069 20.4335 37.6618 23.2866 37.5962 26.7165C40.4104 27.58 42.3399 29.1322 43.4372 30.714C45.3779 29.9021 47.0355 28.5349 48.202 26.7842C49.3685 25.0335 49.9918 22.9773 49.9938 20.8736C49.9938 17.0572 47.9793 13.5959 44.7621 11.6877Z" fill="#002140"/>
<path d="M15.972 35.0518C15.6757 35.0663 15.3963 35.1942 15.1917 35.4091C14.9871 35.624 14.873 35.9093 14.873 36.206C14.873 36.5027 14.9871 36.788 15.1917 37.0029C15.3963 37.2178 15.6757 37.3457 15.972 37.3603C16.2776 37.3598 16.5705 37.2383 16.7867 37.0224C17.0029 36.8066 17.1248 36.5138 17.1258 36.2083V36.2046C17.1251 35.8989 17.0032 35.606 16.787 35.3899C16.5708 35.1738 16.2777 35.0522 15.972 35.0518Z" fill="#002140"/>
<path d="M28.4768 15.0519C29.0895 15.0519 29.5862 14.5552 29.5862 13.9425C29.5862 13.3298 29.0895 12.8331 28.4768 12.8331C27.8641 12.8331 27.3674 13.3298 27.3674 13.9425C27.3674 14.5552 27.8641 15.0519 28.4768 15.0519Z" fill="#002140"/>
<path d="M8.16918 20.9873C8.73083 20.9873 9.18613 20.532 9.18613 19.9703C9.18613 19.4087 8.73083 18.9534 8.16918 18.9534C7.60753 18.9534 7.15222 19.4087 7.15222 19.9703C7.15222 20.532 7.60753 20.9873 8.16918 20.9873Z" fill="#002140"/>
<path d="M25.7422 19.3343C26.3549 19.3343 26.8516 18.8376 26.8516 18.2249C26.8516 17.6122 26.3549 17.1155 25.7422 17.1155C25.1295 17.1155 24.6328 17.6122 24.6328 18.2249C24.6328 18.8376 25.1295 19.3343 25.7422 19.3343Z" fill="#002140"/>
<path d="M23.6176 27.6363C24.2537 27.6363 24.7724 27.1186 24.7724 26.4825C24.7724 25.8465 24.2546 25.3287 23.6176 25.3287C23.3124 25.3292 23.0198 25.4504 22.8036 25.6659C22.5875 25.8814 22.4653 26.1736 22.4639 26.4788L22.4648 26.4825L22.4639 26.4862C22.4653 26.7914 22.5875 27.0837 22.8036 27.2991C23.0198 27.5146 23.3124 27.6358 23.6176 27.6363Z" fill="#002140"/>
</g>
</g>
<defs>
<clipPath id="clip0_127_211">
<rect width="49.7467" height="45.3396" fill="white" transform="translate(0.24707 0.504883)"/>
</clipPath>
<clipPath id="clip1_127_211">
<rect width="49.7467" height="45.3396" fill="white" transform="translate(0.24707 0.504883)"/>
</clipPath>
</defs>
</svg>
