<svg width="182" height="47" viewBox="0 0 182 47" fill="none" xmlns="http://www.w3.org/2000/svg">
<g clip-path="url(#clip0_123_174)">
<g clip-path="url(#clip1_123_174)">
<g clip-path="url(#clip2_123_174)">
<g clip-path="url(#clip3_123_174)">
<g clip-path="url(#clip4_123_174)">
<g clip-path="url(#clip5_123_174)">
<g clip-path="url(#clip6_123_174)">
<g clip-path="url(#clip7_123_174)">
<path d="M74.5045 30.6837L75.3309 33.3858C74.2434 33.726 73.0935 34.0015 71.8814 34.2123C70.6692 34.4231 69.3397 34.5285 67.8928 34.5285C64.3091 34.5285 61.6069 33.4577 59.7863 31.3161C57.9609 29.1745 57.0482 26.022 57.0482 21.8585C57.0482 17.4364 57.9609 14.1018 59.7863 11.8548C61.6069 9.61256 64.3091 8.49146 67.8928 8.49146C69.2487 8.49146 70.468 8.60644 71.5508 8.83641C72.6288 9.07117 73.6708 9.37541 74.6769 9.74911L73.7642 12.3507C73.2851 12.1734 72.8132 12.0153 72.3485 11.8763C71.879 11.7326 71.407 11.6152 70.9327 11.5242C70.4584 11.4284 69.9697 11.3589 69.4667 11.3158C68.9636 11.2679 68.439 11.2439 67.8928 11.2439C66.5944 11.2439 65.4757 11.4739 64.5367 11.9338C63.6024 12.3986 62.831 13.0717 62.2226 13.9533C61.6141 14.8348 61.1637 15.9104 60.8715 17.18C60.5792 18.4497 60.4331 19.8918 60.4331 21.5064C60.4331 23.1689 60.5792 24.6373 60.8715 25.9118C61.1637 27.1862 61.6141 28.2594 62.2226 29.1314C62.831 30.0033 63.6024 30.6621 64.5367 31.1077C65.4757 31.5484 66.5944 31.7688 67.8928 31.7688C69.0858 31.7688 70.2189 31.6706 71.2921 31.4742C72.37 31.273 73.4408 31.0095 74.5045 30.6837ZM100.836 21.492C100.836 25.7129 99.8827 28.9397 97.9759 31.1724C96.069 33.4098 93.3333 34.5285 89.7688 34.5285C86.233 34.5285 83.5045 33.4146 81.5833 31.1867C79.6573 28.9541 78.6943 25.7225 78.6943 21.492C78.6943 17.2663 79.6596 14.0419 81.5904 11.8188C83.5212 9.60059 86.2474 8.49146 89.7688 8.49146C93.3333 8.49146 96.069 9.61017 97.9759 11.8476C99.8827 14.0898 100.836 17.3046 100.836 21.492ZM97.4513 21.492C97.4513 18.2389 96.8117 15.7164 95.5324 13.9245C94.2484 12.1375 92.32 11.2439 89.7472 11.2439C87.1649 11.2439 85.2412 12.147 83.9764 13.9533C82.7116 15.7595 82.0791 18.2724 82.0791 21.492C82.0791 23.0683 82.2301 24.4792 82.5319 25.7249C82.8289 26.9706 83.2841 28.0462 83.8973 28.9517C84.5106 29.862 85.3131 30.5591 86.3049 31.043C87.2918 31.5269 88.4393 31.7688 89.7472 31.7688C92.32 31.7688 94.2484 30.8729 95.5324 29.0811C96.8117 27.2844 97.4513 24.7547 97.4513 21.492ZM111.293 34.1045H105.96V8.87234H111.293C112.73 8.87234 114.067 8.94661 115.303 9.09513C116.539 9.23886 117.67 9.49279 118.695 9.85691C119.725 10.221 120.63 10.7025 121.411 11.3014C122.188 11.9051 122.856 12.6741 123.416 13.6083C123.967 14.5474 124.382 15.6589 124.66 16.9429C124.942 18.2317 125.084 19.7481 125.084 21.492C125.084 23.2312 124.942 24.7451 124.66 26.0339C124.382 27.3227 123.967 28.4343 123.416 29.3685C122.856 30.3028 122.188 31.0717 121.411 31.6754C120.63 32.2791 119.725 32.7606 118.695 33.1199C117.67 33.484 116.539 33.738 115.303 33.8817C114.067 34.0302 112.73 34.1045 111.293 34.1045ZM109.259 31.4023H111.839C113.626 31.4023 115.142 31.2251 116.388 30.8705C117.634 30.5112 118.654 29.9291 119.449 29.1242C120.235 28.3145 120.805 27.2868 121.16 26.0411C121.519 24.7954 121.699 23.2791 121.699 21.492C121.699 19.7001 121.519 18.1814 121.16 16.9357C120.805 15.69 120.235 14.6647 119.449 13.8598C118.654 13.0502 117.634 12.468 116.388 12.1135C115.142 11.7542 113.626 11.5745 111.839 11.5745H109.259V31.4023ZM130.1 34.1045V8.87234H144.099V11.5745H133.399V18.5383H140.98V21.2405H133.399V31.4023H144.502V34.1045H130.1ZM150.33 34.1045V8.87234H153.629V34.1045H150.33ZM170.331 8.49146C172.118 8.49146 173.699 8.77413 175.074 9.33947C176.449 9.90482 177.603 10.7409 178.538 11.8476C179.477 12.9543 180.188 14.315 180.672 15.9296C181.156 17.5442 181.398 19.3983 181.398 21.492C181.398 24.8841 180.789 27.627 179.573 29.7207C178.356 31.8144 176.59 33.2277 174.276 33.9607C174.851 34.3824 175.344 34.7513 175.756 35.0675C176.173 35.3837 176.583 35.6616 176.985 35.9011C177.388 36.1407 177.821 36.3587 178.286 36.5551C178.746 36.7468 179.316 36.936 179.997 37.1229C179.858 37.6115 179.697 38.0787 179.515 38.5242C179.333 38.9698 179.137 39.4202 178.926 39.8753C178.48 39.7603 178.066 39.6334 177.682 39.4944C177.294 39.3507 176.906 39.1878 176.518 39.0057C176.135 38.8285 175.742 38.6105 175.34 38.3518C174.932 38.093 174.484 37.7864 173.996 37.4319C173.502 37.0725 172.958 36.6557 172.364 36.1814C171.765 35.7071 171.088 35.1561 170.331 34.5285C168.587 34.5285 167.027 34.2506 165.652 33.6948C164.277 33.1391 163.115 32.3126 162.167 31.2155C161.223 30.1231 160.502 28.7648 160.003 27.1407C159.505 25.5117 159.256 23.6288 159.256 21.492C159.256 19.36 159.505 17.4843 160.003 15.8649C160.502 14.2455 161.223 12.8897 162.167 11.7973C163.115 10.7001 164.277 9.87607 165.652 9.3251C167.027 8.76934 168.587 8.49146 170.331 8.49146ZM170.309 11.2439C168.977 11.2439 167.825 11.4859 166.852 11.9698C165.884 12.4537 165.089 13.1436 164.466 14.0395C163.848 14.9354 163.391 16.0158 163.094 17.2807C162.792 18.5407 162.641 19.9445 162.641 21.492C162.641 23.0443 162.792 24.4553 163.094 25.7249C163.391 26.9945 163.848 28.0773 164.466 28.9733C165.089 29.8692 165.884 30.5591 166.852 31.043C167.825 31.5269 168.977 31.7688 170.309 31.7688C171.622 31.7688 172.762 31.5317 173.73 31.0574C174.702 30.5878 175.505 29.9075 176.137 29.0164C176.77 28.1252 177.239 27.0472 177.546 25.7824C177.857 24.5128 178.013 23.0826 178.013 21.492C178.013 19.911 177.857 18.4856 177.546 17.216C177.239 15.9464 176.77 14.8708 176.137 13.9892C175.505 13.1076 174.702 12.4297 173.73 11.9554C172.762 11.4811 171.622 11.2439 170.309 11.2439Z" fill="#002140"/>
</g>
</g>
</g>
</g>
<g clip-path="url(#clip8_123_174)">
<g clip-path="url(#clip9_123_174)">
<path d="M38.7435 37.3159C39.3562 37.3159 39.8529 36.8192 39.8529 36.2065C39.8529 35.5938 39.3562 35.0971 38.7435 35.0971C38.1308 35.0971 37.6341 35.5938 37.6341 36.2065C37.6341 36.8192 38.1308 37.3159 38.7435 37.3159Z" fill="#002140"/>
<path d="M46.551 20.9873C47.1126 20.9873 47.5679 20.532 47.5679 19.9703C47.5679 19.4087 47.1126 18.9534 46.551 18.9534C45.9893 18.9534 45.534 19.4087 45.534 19.9703C45.534 20.532 45.9893 20.9873 46.551 20.9873Z" fill="#002140"/>
<path d="M31.0969 27.5929C31.7096 27.5929 32.2063 27.0962 32.2063 26.4835C32.2063 25.8708 31.7096 25.3741 31.0969 25.3741C30.4842 25.3741 29.9875 25.8708 29.9875 26.4835C29.9875 27.0962 30.4842 27.5929 31.0969 27.5929Z" fill="#002140"/>
<path d="M44.7621 11.6877C44.7048 11.7806 44.616 11.8497 44.5118 11.8823C44.4077 11.9149 44.2953 11.9088 44.1953 11.8652C44.0876 11.8156 43.9807 11.7645 43.8745 11.7117C42.7346 11.1524 39.2677 9.45317 37.1127 10.6208C36.1133 11.1626 35.5031 12.2988 35.297 13.9971C35.2942 14.0212 35.2822 14.0415 35.2766 14.0646C35.2692 14.0905 35.2637 14.1155 35.2535 14.1395C35.2377 14.1689 35.2188 14.1965 35.1971 14.2218C35.1823 14.2403 35.1712 14.2606 35.1537 14.2763C35.1255 14.3006 35.0944 14.3214 35.0612 14.3383C35.0437 14.3484 35.0298 14.3614 35.0104 14.3688C34.9558 14.3914 34.8974 14.4033 34.8384 14.4039H30.4997C30.3948 14.8622 30.1377 15.2715 29.7704 15.565C29.403 15.8585 28.9471 16.0188 28.4769 16.0199C27.3305 16.0199 26.3986 15.088 26.3986 13.9417C26.3986 12.7953 27.3305 11.8624 28.4769 11.8624C29.4633 11.8624 30.2889 12.5558 30.4997 13.4794H34.4446C34.7386 11.6914 35.4828 10.4526 36.6708 9.80819C38.9562 8.56657 42.1975 9.89232 43.7673 10.6338C43.759 5.0479 39.2104 0.504883 33.6208 0.504883C31.3521 0.504883 29.1435 1.27407 27.361 2.6784C25.5759 1.27284 23.3705 0.50743 21.0984 0.504883C15.5051 0.504883 10.9547 5.0553 10.9547 10.6486C10.9547 10.6865 10.9575 10.7216 10.9584 10.7595C12.5282 10.0227 15.7695 8.7034 18.0475 9.94409C19.3233 10.6384 20.0925 12.0104 20.3357 14.0212C20.3366 14.0313 20.3329 14.0396 20.3338 14.0498C20.3338 14.0591 20.3394 14.0674 20.3394 14.0766V17.7626H23.7203C23.825 17.3041 24.082 16.8946 24.4494 16.601C24.8168 16.3073 25.2728 16.1468 25.7431 16.1457C26.8895 16.1457 27.8223 17.0785 27.8223 18.2249C27.8223 19.3713 26.8895 20.3041 25.7431 20.3041C25.2728 20.3029 24.8168 20.1424 24.4494 19.8488C24.082 19.5551 23.825 19.1456 23.7203 18.6871H19.8771C19.7545 18.6871 19.637 18.6384 19.5503 18.5517C19.4636 18.4651 19.4149 18.3475 19.4149 18.2249V14.1118C19.2078 12.4264 18.6004 11.2976 17.6065 10.7558C15.4608 9.58908 11.9929 11.2791 10.8521 11.8356C10.7042 11.9077 10.5905 11.9632 10.5184 11.9946C10.4626 12.0188 10.4027 12.0318 10.3419 12.0328C10.2812 12.0338 10.2209 12.0229 10.1644 12.0005C10.1079 11.9782 10.0563 11.945 10.0127 11.9027C9.96905 11.8605 9.93416 11.81 9.91003 11.7543C9.90541 11.7441 9.90726 11.733 9.90356 11.7219C8.32313 12.6697 7.01542 14.011 6.10803 15.615C5.20065 17.219 4.72459 19.0308 4.72632 20.8736C4.72632 25.192 7.33435 29.0582 11.2811 30.7122C12.3785 29.1304 14.3061 27.5781 17.1203 26.7156C17.0546 23.2866 15.6115 20.4335 13.9048 20.4335H10.0182C9.91519 20.8465 9.67745 21.2133 9.34257 21.4761C9.0077 21.7388 8.5948 21.8823 8.16918 21.8841C7.11432 21.8841 6.25638 21.0261 6.25638 19.9713C6.25638 18.9164 7.11432 18.0585 8.16918 18.0585C9.06318 18.0585 9.81018 18.6779 10.0182 19.509H13.9048C16.1375 19.509 17.9005 22.5294 18.0374 26.4678C19.2035 26.199 20.3946 26.0534 21.5912 26.0333C21.6937 25.5719 21.9502 25.1592 22.3186 24.8631C22.6869 24.5671 23.1451 24.4052 23.6177 24.4043C24.7641 24.4043 25.6969 25.3371 25.6969 26.4826C25.6969 27.628 24.7641 28.5609 23.6177 28.5609C23.1498 28.5596 22.696 28.4005 22.3296 28.1095C21.9632 27.8184 21.7057 27.4123 21.5986 26.9568C15.7788 27.0835 12.4903 29.8801 11.441 32.2894C11.4086 32.3585 11.3592 32.4183 11.2975 32.4633C11.2357 32.5082 11.1636 32.5368 11.0878 32.5464C10.998 33.1192 10.9532 33.6982 10.9538 34.278C10.9538 40.6552 16.1412 45.8445 22.5184 45.8445C23.969 45.8445 25.3807 45.5579 26.7333 45.0235C25.9576 40.4186 22.3613 36.8962 17.9884 36.691C17.8794 37.1441 17.6214 37.5475 17.2558 37.8366C16.8902 38.1256 16.4381 38.2834 15.972 38.2848C15.421 38.2843 14.8926 38.0652 14.503 37.6756C14.1133 37.2859 13.8942 36.7576 13.8937 36.2065C13.894 35.6553 14.113 35.1267 14.5027 34.7369C14.8923 34.347 15.4208 34.1278 15.972 34.1273C16.9677 34.1273 17.7998 34.8318 18.0022 35.7665C22.4029 35.9597 26.1 39.1788 27.3582 43.5702C28.6165 39.1779 32.3136 35.9597 36.7142 35.7665C36.8148 35.3028 37.0709 34.8874 37.44 34.5893C37.8091 34.2911 38.269 34.1281 38.7435 34.1273C39.2947 34.1278 39.8232 34.347 40.2129 34.7369C40.6026 35.1267 40.8216 35.6553 40.8218 36.2065C40.8213 36.7576 40.6022 37.2859 40.2126 37.6756C39.8229 38.0652 39.2946 38.2843 38.7435 38.2848C38.2776 38.2832 37.8257 38.1253 37.4603 37.8363C37.0949 37.5473 36.837 37.144 36.7281 36.691C32.3552 36.8962 28.7589 40.4167 27.9823 45.0226C29.3339 45.557 30.7447 45.8445 32.198 45.8445C38.5771 45.8445 43.7682 40.6562 43.7682 34.278C43.7682 33.7011 43.7229 33.1233 43.6332 32.5473C43.557 32.5382 43.4843 32.5098 43.4221 32.4648C43.3598 32.4199 43.31 32.3598 43.2773 32.2903C42.2234 29.8811 38.933 27.0835 33.1161 26.9568C33.0091 27.4127 32.7515 27.8191 32.3849 28.1103C32.0183 28.4016 31.5642 28.5606 31.096 28.5618C29.9505 28.5618 29.0177 27.629 29.0177 26.4835C29.0177 25.338 29.9505 24.4052 31.096 24.4052C31.5685 24.4061 32.0266 24.5678 32.3949 24.8637C32.7632 25.1596 33.0198 25.5721 33.1225 26.0333C34.4224 26.0601 35.6076 26.2145 36.6782 26.4678C36.815 22.5294 38.5799 19.509 40.8144 19.509H44.701C44.804 19.0961 45.0418 18.7292 45.3767 18.4665C45.7115 18.2038 46.1244 18.0602 46.5501 18.0585C47.6049 18.0585 48.4629 18.9164 48.4629 19.9713C48.4629 21.0261 47.604 21.8841 46.5501 21.8841C45.6551 21.8841 44.9091 21.2647 44.701 20.4335H40.8144C39.1069 20.4335 37.6618 23.2866 37.5962 26.7165C40.4104 27.58 42.3399 29.1322 43.4372 30.714C45.3779 29.9021 47.0355 28.5349 48.202 26.7842C49.3685 25.0335 49.9918 22.9773 49.9938 20.8736C49.9938 17.0572 47.9793 13.5959 44.7621 11.6877Z" fill="#002140"/>
<path d="M15.972 35.0518C15.6757 35.0663 15.3963 35.1943 15.1917 35.4092C14.9871 35.624 14.873 35.9094 14.873 36.2061C14.873 36.5028 14.9871 36.7881 15.1917 37.003C15.3963 37.2178 15.6757 37.3458 15.972 37.3603C16.2776 37.3598 16.5705 37.2384 16.7867 37.0225C17.0029 36.8066 17.1248 36.5139 17.1258 36.2084V36.2047C17.1251 35.899 17.0032 35.606 16.787 35.39C16.5708 35.1739 16.2777 35.0523 15.972 35.0518Z" fill="#002140"/>
<path d="M28.4768 15.052C29.0895 15.052 29.5862 14.5553 29.5862 13.9426C29.5862 13.3299 29.0895 12.8332 28.4768 12.8332C27.8641 12.8332 27.3674 13.3299 27.3674 13.9426C27.3674 14.5553 27.8641 15.052 28.4768 15.052Z" fill="#002140"/>
<path d="M8.16918 20.9873C8.73083 20.9873 9.18613 20.532 9.18613 19.9703C9.18613 19.4087 8.73083 18.9534 8.16918 18.9534C7.60753 18.9534 7.15222 19.4087 7.15222 19.9703C7.15222 20.532 7.60753 20.9873 8.16918 20.9873Z" fill="#002140"/>
<path d="M25.7422 19.3343C26.3549 19.3343 26.8516 18.8376 26.8516 18.2249C26.8516 17.6122 26.3549 17.1155 25.7422 17.1155C25.1295 17.1155 24.6328 17.6122 24.6328 18.2249C24.6328 18.8376 25.1295 19.3343 25.7422 19.3343Z" fill="#002140"/>
<path d="M23.6176 27.6364C24.2537 27.6364 24.7724 27.1186 24.7724 26.4826C24.7724 25.8465 24.2546 25.3288 23.6176 25.3288C23.3124 25.3293 23.0198 25.4505 22.8036 25.666C22.5875 25.8814 22.4653 26.1737 22.4639 26.4789L22.4648 26.4826L22.4639 26.4863C22.4653 26.7915 22.5875 27.0837 22.8036 27.2992C23.0198 27.5147 23.3124 27.6359 23.6176 27.6364Z" fill="#002140"/>
</g>
</g>
</g>
</g>
</g>
</g>
<defs>
<clipPath id="clip0_123_174">
<rect width="182" height="46.3493" fill="white"/>
</clipPath>
<clipPath id="clip1_123_174">
<rect width="181.506" height="46.2074" fill="white" transform="translate(0.24707 0.0709839)"/>
</clipPath>
<clipPath id="clip2_123_174">
<rect width="181.506" height="46.2074" fill="white" transform="translate(0.24707 0.0709839)"/>
</clipPath>
<clipPath id="clip3_123_174">
<rect width="181.506" height="46.2074" fill="white" transform="translate(0.24707 0.0709839)"/>
</clipPath>
<clipPath id="clip4_123_174">
<rect width="124.35" height="46.2074" fill="white" transform="translate(57.2257 1.35181)"/>
</clipPath>
<clipPath id="clip5_123_174">
<rect width="124.35" height="46.2074" fill="white" transform="translate(57.2257 1.35181)"/>
</clipPath>
<clipPath id="clip6_123_174">
<rect width="124.35" height="31.3857" fill="white" transform="translate(57.0482 8.49042)"/>
</clipPath>
<clipPath id="clip7_123_174">
<rect width="124.35" height="31.3857" fill="white" transform="translate(57.0482 8.49042)"/>
</clipPath>
<clipPath id="clip8_123_174">
<rect width="49.7467" height="45.3396" fill="white" transform="translate(0.24707 0.504883)"/>
</clipPath>
<clipPath id="clip9_123_174">
<rect width="49.7467" height="45.3396" fill="white" transform="translate(0.24707 0.504883)"/>
</clipPath>
</defs>
</svg>
