<svg width="250" height="64" viewBox="0 0 250 64" fill="none" xmlns="http://www.w3.org/2000/svg">
<g clip-path="url(#clip0_123_137)">
<g clip-path="url(#clip1_123_137)">
<g clip-path="url(#clip2_123_137)">
<g clip-path="url(#clip3_123_137)">
<g clip-path="url(#clip4_123_137)">
<g clip-path="url(#clip5_123_137)">
<g clip-path="url(#clip6_123_137)">
<g clip-path="url(#clip7_123_137)">
<path d="M101.347 34.6748L102.483 38.3866C100.989 38.8539 99.4091 39.2323 97.7441 39.5219C96.0791 39.8114 94.2528 39.9562 92.2653 39.9562C87.3426 39.9562 83.6308 38.4853 81.13 35.5436C78.6226 32.6018 77.3689 28.2714 77.3689 22.5524C77.3689 16.478 78.6226 11.8975 81.13 8.811C83.6308 5.73103 87.3426 4.19104 92.2653 4.19104C94.1278 4.19104 95.8027 4.34899 97.29 4.66488C98.7707 4.98736 100.202 5.40526 101.584 5.91859L100.33 9.49214C99.6724 9.24864 99.0241 9.03146 98.3857 8.84061C97.7408 8.64318 97.0926 8.48194 96.441 8.3569C95.7895 8.22527 95.1182 8.12985 94.4272 8.07062C93.7362 8.00481 93.0155 7.9719 92.2653 7.9719C90.4818 7.9719 88.9451 8.28779 87.6552 8.91958C86.3719 9.55795 85.3123 10.4826 84.4765 11.6935C83.6407 12.9045 83.0221 14.3819 82.6206 16.1259C82.2192 17.8699 82.0185 19.8508 82.0185 22.0687C82.0185 24.3523 82.2192 26.3695 82.6206 28.12C83.0221 29.8706 83.6407 31.3448 84.4765 32.5426C85.3123 33.7403 86.3719 34.6452 87.6552 35.2573C88.9451 35.8627 90.4818 36.1655 92.2653 36.1655C93.904 36.1655 95.4604 36.0306 96.9346 35.7607C98.4154 35.4843 99.8862 35.1224 101.347 34.6748ZM137.517 22.0489C137.517 27.8469 136.208 32.2793 133.588 35.3461C130.969 38.4195 127.211 39.9562 122.315 39.9562C117.458 39.9562 113.71 38.4261 111.071 35.3659C108.425 32.2991 107.102 27.8601 107.102 22.0489C107.102 16.2444 108.429 11.8153 111.081 8.76164C113.733 5.71457 117.478 4.19104 122.315 4.19104C127.211 4.19104 130.969 5.72773 133.588 8.80112C136.208 11.8811 137.517 16.297 137.517 22.0489ZM132.868 22.0489C132.868 17.5804 131.989 14.1154 130.232 11.654C128.468 9.19928 125.819 7.9719 122.285 7.9719C118.738 7.9719 116.096 9.21244 114.358 11.6935C112.621 14.1746 111.752 17.6264 111.752 22.0489C111.752 24.2141 111.959 26.1523 112.374 27.8634C112.782 29.5745 113.407 31.0519 114.25 32.2958C115.092 33.5462 116.194 34.5037 117.557 35.1684C118.912 35.8331 120.488 36.1655 122.285 36.1655C125.819 36.1655 128.468 34.9348 130.232 32.4735C131.989 30.0055 132.868 26.5307 132.868 22.0489ZM151.88 39.3738H144.556V4.71424H151.88C153.855 4.71424 155.691 4.81625 157.389 5.02026C159.087 5.2177 160.64 5.56649 162.048 6.06666C163.463 6.56683 164.707 7.22823 165.78 8.05087C166.846 8.8801 167.764 9.93637 168.534 11.2197C169.291 12.5096 169.86 14.0364 170.242 15.8002C170.63 17.5705 170.824 19.6534 170.824 22.0489C170.824 24.4379 170.63 26.5175 170.242 28.2879C169.86 30.0582 169.291 31.585 168.534 32.8683C167.764 34.1516 166.846 35.2079 165.78 36.0371C164.707 36.8664 163.463 37.5278 162.048 38.0214C160.64 38.5215 159.087 38.8703 157.389 39.0677C155.691 39.2718 153.855 39.3738 151.88 39.3738ZM149.087 35.662H152.631C155.086 35.662 157.168 35.4185 158.88 34.9315C160.591 34.4379 161.992 33.6383 163.085 32.5327C164.164 31.4205 164.947 30.0088 165.434 28.2977C165.928 26.5866 166.175 24.5037 166.175 22.0489C166.175 19.5876 165.928 17.5014 165.434 15.7903C164.947 14.0792 164.164 12.6708 163.085 11.5652C161.992 10.453 160.591 9.65338 158.88 9.16638C157.168 8.67279 155.086 8.426 152.631 8.426H149.087V35.662ZM177.715 39.3738V4.71424H196.945V8.426H182.246V17.9917H192.66V21.7034H182.246V35.662H197.498V39.3738H177.715ZM205.504 39.3738V4.71424H210.035V39.3738H205.504ZM232.977 4.19104C235.431 4.19104 237.603 4.57933 239.492 5.3559C241.381 6.13247 242.967 7.28088 244.25 8.80112C245.54 10.3214 246.517 12.1904 247.182 14.4082C247.847 16.6261 248.179 19.173 248.179 22.0489C248.179 26.7084 247.343 30.4761 245.672 33.352C244 36.228 241.575 38.1694 238.396 39.1763C239.186 39.7555 239.864 40.2622 240.43 40.6966C241.002 41.1309 241.565 41.5126 242.118 41.8417C242.671 42.1708 243.266 42.4702 243.904 42.74C244.536 43.0033 245.319 43.2632 246.254 43.5199C246.063 44.1912 245.843 44.8328 245.593 45.4449C245.342 46.0569 245.073 46.6755 244.783 47.3007C244.171 47.1428 243.602 46.9684 243.075 46.7775C242.542 46.5801 242.009 46.3564 241.476 46.1063C240.95 45.8628 240.41 45.5633 239.857 45.2079C239.298 44.8526 238.682 44.4314 238.011 43.9444C237.333 43.4508 236.586 42.8782 235.77 42.2267C234.948 41.5752 234.016 40.8183 232.977 39.9562C230.581 39.9562 228.439 39.5745 226.55 38.8111C224.661 38.0477 223.065 36.9124 221.762 35.4054C220.466 33.9049 219.475 32.0391 218.791 29.8081C218.106 27.5705 217.764 24.9841 217.764 22.0489C217.764 19.1203 218.106 16.5438 218.791 14.3194C219.475 12.095 220.466 10.2325 221.762 8.73202C223.065 7.22494 224.661 6.09299 226.55 5.33616C228.439 4.57275 230.581 4.19104 232.977 4.19104ZM232.947 7.9719C231.117 7.9719 229.535 8.30425 228.199 8.96894C226.869 9.63364 225.777 10.5813 224.921 11.812C224.072 13.0427 223.444 14.5267 223.036 16.2641C222.621 17.995 222.414 19.9232 222.414 22.0489C222.414 24.1812 222.621 26.1194 223.036 27.8634C223.444 29.6074 224.072 31.0947 224.921 32.3254C225.777 33.5561 226.869 34.5037 228.199 35.1684C229.535 35.8331 231.117 36.1655 232.947 36.1655C234.75 36.1655 236.316 35.8397 237.646 35.1882C238.982 34.5432 240.084 33.6087 240.953 32.3846C241.822 31.1605 242.467 29.6798 242.888 27.9423C243.315 26.1983 243.529 24.2339 243.529 22.0489C243.529 19.8772 243.315 17.9193 242.888 16.1753C242.467 14.4313 241.822 12.9538 240.953 11.7429C240.084 10.532 238.982 9.60073 237.646 8.9492C236.316 8.29767 234.75 7.9719 232.947 7.9719Z" fill="#002140"/>
</g>
</g>
<g clip-path="url(#clip8_123_137)">
<g clip-path="url(#clip9_123_137)">
<path d="M86.884 57.8861L85.9727 58.2527L85.1557 56.1577H81.7617L80.9447 58.2318L80.0962 57.8861L82.9664 50.8154H84.0558L86.884 57.8861ZM83.4587 51.8001L82.076 55.3197H84.8309L83.4587 51.8001ZM88.9267 58.148H87.9316V50.8154H88.9267V58.148ZM94.7927 54.9845H91.2312V54.1256H94.7927V54.9845ZM98.0903 58.148H97.0952V50.8364C97.3815 50.8015 97.6978 50.7756 98.0442 50.7589C98.3892 50.7407 98.7467 50.7316 99.1168 50.7316C99.7244 50.7316 100.241 50.828 100.667 51.0207C101.093 51.2121 101.418 51.4754 101.641 51.8106C101.865 52.1458 101.977 52.5298 101.977 52.9628C101.977 53.4866 101.847 53.93 101.589 54.2932C101.331 54.6563 100.971 54.9335 100.51 55.1249C100.049 55.3176 99.5149 55.414 98.9073 55.414C98.614 55.414 98.3417 55.4035 98.0903 55.3826V58.148ZM99.033 54.5865C99.6546 54.5865 100.136 54.4468 100.479 54.1675C100.821 53.8881 100.992 53.5145 100.992 53.0466C100.992 52.5927 100.828 52.2331 100.5 51.9677C100.171 51.7023 99.7035 51.5696 99.0959 51.5696C98.9073 51.5696 98.7293 51.5731 98.5617 51.5801C98.3941 51.5871 98.2369 51.5976 98.0903 51.6115V54.5341C98.202 54.548 98.3382 54.5606 98.4988 54.5718C98.6594 54.5816 98.8375 54.5865 99.033 54.5865ZM105.213 58.2737C104.697 58.2737 104.232 58.1529 103.82 57.9112C103.408 57.671 103.086 57.3358 102.852 56.9056C102.618 56.4769 102.5 55.9831 102.5 55.4245C102.5 54.8379 102.619 54.3316 102.856 53.9056C103.094 53.4796 103.419 53.1514 103.831 52.9209C104.243 52.6905 104.704 52.5752 105.213 52.5752C105.723 52.5752 106.183 52.6905 106.592 52.9209C107 53.1514 107.324 53.4775 107.566 53.8993C107.806 54.3225 107.926 54.8239 107.926 55.4035C107.926 55.9831 107.808 56.4873 107.57 56.9161C107.333 57.3463 107.01 57.6801 106.602 57.9175C106.193 58.155 105.73 58.2737 105.213 58.2737ZM105.213 57.4357C105.765 57.4357 106.195 57.2485 106.502 56.8742C106.809 56.5013 106.963 56.0181 106.963 55.4245C106.963 55.0613 106.886 54.7275 106.732 54.423C106.579 54.12 106.371 53.8755 106.11 53.6898C105.847 53.5054 105.549 53.4132 105.213 53.4132C104.662 53.4132 104.232 53.5948 103.925 53.958C103.618 54.3211 103.464 54.8029 103.464 55.4035C103.464 55.7666 103.541 56.1032 103.694 56.4133C103.848 56.7248 104.056 56.9727 104.319 57.157C104.58 57.3428 104.878 57.4357 105.213 57.4357ZM111.257 58.148H110.22L108.503 52.9523L109.372 52.6486L110.776 57.0795L112.054 53.0885H113.07L114.316 57.0795L115.709 52.6486L116.547 52.9523L114.819 58.148H113.782L112.525 54.0941L111.257 58.148ZM119.721 58.2737C118.939 58.2737 118.319 58.0237 117.861 57.5237C117.404 57.0251 117.176 56.3253 117.176 55.4245C117.176 54.8798 117.279 54.3923 117.484 53.9621C117.691 53.5334 117.979 53.1947 118.349 52.9461C118.719 52.6988 119.149 52.5752 119.638 52.5752C120.161 52.5752 120.596 52.6884 120.941 52.9146C121.287 53.1423 121.547 53.4482 121.722 53.8323C121.897 54.2163 121.984 54.6388 121.984 55.0997C121.984 55.3442 121.973 55.5816 121.953 55.812H118.14C118.202 56.3218 118.381 56.7199 118.674 57.0062C118.967 57.2925 119.355 57.4357 119.837 57.4357C120.151 57.4357 120.434 57.4022 120.685 57.3351C120.936 57.2695 121.177 57.1843 121.408 57.0795L121.628 57.8861C121.376 57.9978 121.094 58.0907 120.779 58.1647C120.465 58.2374 120.112 58.2737 119.721 58.2737ZM118.129 55.0474H121.115C121.115 54.5166 120.982 54.1081 120.716 53.8218C120.451 53.5355 120.084 53.3923 119.617 53.3923C119.212 53.3923 118.876 53.5334 118.611 53.8155C118.346 54.099 118.185 54.5096 118.129 55.0474ZM124.182 58.148H123.239V52.7009H124.15V53.8846C124.241 53.6542 124.363 53.4391 124.517 53.2394C124.67 53.041 124.863 52.8804 125.093 52.7575C125.323 52.636 125.592 52.5752 125.9 52.5752C126.004 52.5752 126.109 52.5801 126.214 52.5899C126.319 52.6011 126.406 52.6171 126.476 52.6381L126.193 53.6123C126.06 53.5564 125.903 53.5285 125.721 53.5285C125.463 53.5285 125.217 53.6018 124.984 53.7484C124.749 53.8951 124.557 54.1221 124.408 54.4293C124.257 54.7366 124.182 55.1277 124.182 55.6025V58.148ZM129.283 58.2737C128.501 58.2737 127.881 58.0237 127.425 57.5237C126.967 57.0251 126.738 56.3253 126.738 55.4245C126.738 54.8798 126.84 54.3923 127.046 53.9621C127.252 53.5334 127.541 53.1947 127.911 52.9461C128.281 52.6988 128.71 52.5752 129.199 52.5752C129.723 52.5752 130.157 52.6884 130.502 52.9146C130.849 53.1423 131.109 53.4482 131.284 53.8323C131.458 54.2163 131.546 54.6388 131.546 55.0997C131.546 55.3442 131.535 55.5816 131.514 55.812H127.701C127.764 56.3218 127.942 56.7199 128.235 57.0062C128.529 57.2925 128.916 57.4357 129.398 57.4357C129.712 57.4357 129.995 57.4022 130.247 57.3351C130.498 57.2695 130.739 57.1843 130.969 57.0795L131.189 57.8861C130.938 57.9978 130.655 58.0907 130.341 58.1647C130.027 58.2374 129.674 58.2737 129.283 58.2737ZM127.691 55.0474H130.676C130.676 54.5166 130.543 54.1081 130.278 53.8218C130.013 53.5355 129.646 53.3923 129.178 53.3923C128.773 53.3923 128.438 53.5334 128.173 53.8155C127.907 54.099 127.747 54.5096 127.691 55.0474ZM134.866 58.2737C134.419 58.2737 134.011 58.1585 133.641 57.928C133.27 57.6976 132.977 57.3707 132.761 56.9475C132.544 56.5257 132.436 56.0285 132.436 55.4559C132.436 54.9042 132.546 54.4119 132.765 53.9789C132.986 53.5459 133.279 53.2037 133.645 52.9523C134.012 52.7009 134.416 52.5752 134.856 52.5752C135.219 52.5752 135.531 52.6486 135.792 52.7952C136.055 52.9419 136.259 53.092 136.406 53.2456V50.3964H137.349V56.8281C137.349 57.0935 137.413 57.266 137.542 57.3456C137.671 57.4266 137.813 57.4671 137.967 57.4671L137.768 58.2004C137.104 58.2004 136.699 57.935 136.553 57.4043C136.399 57.6207 136.184 57.8198 135.907 58.0013C135.632 58.1829 135.285 58.2737 134.866 58.2737ZM135.076 57.4357C135.334 57.4357 135.58 57.3742 135.813 57.2513C136.048 57.1298 136.245 56.9713 136.406 56.7757V54.0732C136.273 53.9056 136.088 53.7498 135.851 53.606C135.613 53.4635 135.352 53.3923 135.065 53.3923C134.73 53.3923 134.437 53.4831 134.185 53.6646C133.934 53.8462 133.74 54.0885 133.603 54.3916C133.467 54.6961 133.4 55.0404 133.4 55.4245C133.4 55.8085 133.473 56.1521 133.62 56.4552C133.766 56.7597 133.967 56.9992 134.221 57.1738C134.477 57.3484 134.761 57.4357 135.076 57.4357ZM145.287 58.2737C144.651 58.2737 144.089 58.1214 143.6 57.817C143.111 57.5139 142.731 57.0809 142.459 56.5181C142.186 55.9566 142.05 55.2883 142.05 54.5131C142.05 53.7659 142.188 53.1039 142.465 52.5271C142.74 51.9516 143.131 51.5019 143.638 51.1779C144.144 50.8524 144.735 50.6897 145.413 50.6897C145.762 50.6897 146.079 50.7225 146.366 50.7882C146.652 50.8552 146.921 50.9481 147.172 51.0668L146.869 51.9048C146.652 51.8001 146.431 51.7163 146.204 51.6534C145.977 51.5906 145.709 51.5592 145.402 51.5592C144.955 51.5592 144.556 51.6744 144.204 51.9048C143.85 52.1353 143.572 52.467 143.37 52.9C143.167 53.3329 143.066 53.8567 143.066 54.4712C143.066 55.0578 143.166 55.5711 143.366 56.0111C143.564 56.451 143.84 56.7932 144.193 57.0376C144.545 57.282 144.948 57.4043 145.402 57.4043C145.744 57.4043 146.041 57.3624 146.292 57.2786C146.544 57.1948 146.788 57.0865 147.026 56.9538L147.329 57.7814C147.071 57.921 146.776 58.0376 146.445 58.1312C146.113 58.2262 145.727 58.2737 145.287 58.2737ZM150.566 58.2737C150.049 58.2737 149.585 58.1529 149.173 57.9112C148.761 57.671 148.438 57.3358 148.203 56.9056C147.97 56.4769 147.853 55.9831 147.853 55.4245C147.853 54.8379 147.972 54.3316 148.209 53.9056C148.447 53.4796 148.772 53.1514 149.184 52.9209C149.596 52.6905 150.056 52.5752 150.566 52.5752C151.076 52.5752 151.535 52.6905 151.943 52.9209C152.352 53.1514 152.677 53.4775 152.917 53.8993C153.158 54.3225 153.279 54.8239 153.279 55.4035C153.279 55.9831 153.161 56.4873 152.923 56.9161C152.686 57.3463 152.362 57.6801 151.953 57.9175C151.545 58.155 151.083 58.2737 150.566 58.2737ZM150.566 57.4357C151.118 57.4357 151.547 57.2485 151.855 56.8742C152.162 56.5013 152.316 56.0181 152.316 55.4245C152.316 55.0613 152.239 54.7275 152.085 54.423C151.932 54.12 151.723 53.8755 151.461 53.6898C151.2 53.5054 150.901 53.4132 150.566 53.4132C150.015 53.4132 149.585 53.5948 149.278 53.958C148.971 54.3211 148.817 54.8029 148.817 55.4035C148.817 55.7666 148.894 56.1032 149.047 56.4133C149.201 56.7248 149.408 56.9727 149.67 57.157C149.932 57.3428 150.231 57.4357 150.566 57.4357ZM155.479 58.148H154.536V52.7009H155.448V53.6123C155.643 53.319 155.891 53.0725 156.191 52.8727C156.492 52.6744 156.834 52.5752 157.218 52.5752C157.651 52.5752 158.005 52.68 158.28 52.8895C158.557 53.099 158.751 53.3783 158.863 53.7275C159.079 53.4063 159.335 53.1339 159.631 52.9104C159.929 52.687 160.298 52.5752 160.738 52.5752C161.331 52.5752 161.772 52.7617 162.062 53.1346C162.352 53.5089 162.497 53.9964 162.497 54.5969V58.148H161.555V54.6703C161.555 54.2932 161.467 53.9873 161.293 53.7526C161.118 53.5194 160.877 53.4028 160.57 53.4028C160.256 53.4028 159.964 53.5194 159.694 53.7526C159.426 53.9873 159.191 54.2617 158.988 54.576V58.148H158.045V54.6703C158.045 54.2932 157.958 53.9873 157.784 53.7526C157.609 53.5194 157.368 53.4028 157.061 53.4028C156.754 53.4028 156.464 53.5159 156.191 53.7422C155.919 53.9698 155.682 54.2373 155.479 54.5446V58.148ZM165.261 60.4525H164.318V54.0941C164.318 53.8567 164.261 53.687 164.146 53.585C164.03 53.4845 163.881 53.4342 163.7 53.4342L163.899 52.7009C164.541 52.7009 164.943 52.9558 165.104 53.4656C165.173 53.3609 165.287 53.2387 165.445 53.099C165.601 52.9593 165.797 52.8371 166.032 52.7324C166.265 52.6276 166.532 52.5752 166.832 52.5752C167.251 52.5752 167.644 52.6849 168.011 52.9042C168.377 53.1248 168.672 53.4426 168.896 53.8574C169.119 54.2736 169.231 54.7785 169.231 55.3721C169.231 55.9517 169.119 56.4594 168.896 56.8952C168.672 57.3323 168.381 57.671 168.022 57.9112C167.662 58.1529 167.272 58.2737 166.853 58.2737C166.532 58.2737 166.231 58.2087 165.952 58.0788C165.673 57.9504 165.442 57.8023 165.261 57.6347V60.4525ZM166.664 57.4357C167.139 57.4357 167.525 57.2485 167.823 56.8742C168.119 56.5013 168.267 56.0111 168.267 55.4035C168.267 54.9845 168.192 54.6249 168.043 54.3246C167.892 54.0243 167.693 53.7938 167.446 53.6332C167.197 53.4726 166.923 53.3923 166.622 53.3923C166.322 53.3923 166.052 53.467 165.812 53.6165C165.57 53.7673 165.386 53.93 165.261 54.1046V56.7862C165.442 56.9748 165.652 57.1298 165.889 57.2513C166.127 57.3742 166.385 57.4357 166.664 57.4357ZM172.195 58.2737C171.874 58.2737 171.584 58.2122 171.326 58.0893C171.067 57.9678 170.863 57.7709 170.714 57.4985C170.563 57.2262 170.488 56.8735 170.488 56.4405V50.3964H171.431V56.3463C171.431 56.7234 171.509 57.0027 171.667 57.1843C171.824 57.3658 172.042 57.4566 172.321 57.4566C172.454 57.4566 172.585 57.4406 172.715 57.4084C172.843 57.3777 172.953 57.3414 173.044 57.2995L173.274 58.0642C173.148 58.1201 172.993 58.1689 172.809 58.2108C172.623 58.2527 172.419 58.2737 172.195 58.2737ZM176.186 58.2737C175.404 58.2737 174.784 58.0237 174.326 57.5237C173.869 57.0251 173.641 56.3253 173.641 55.4245C173.641 54.8798 173.743 54.3923 173.949 53.9621C174.155 53.5334 174.444 53.1947 174.814 52.9461C175.184 52.6988 175.614 52.5752 176.102 52.5752C176.626 52.5752 177.061 52.6884 177.406 52.9146C177.752 53.1423 178.012 53.4482 178.187 53.8323C178.362 54.2163 178.449 54.6388 178.449 55.0997C178.449 55.3442 178.438 55.5816 178.417 55.812H174.604C174.667 56.3218 174.845 56.7199 175.139 57.0062C175.432 57.2925 175.82 57.4357 176.301 57.4357C176.616 57.4357 176.899 57.4022 177.15 57.3351C177.401 57.2695 177.642 57.1843 177.873 57.0795L178.093 57.8861C177.841 57.9978 177.558 58.0907 177.244 58.1647C176.93 58.2374 176.577 58.2737 176.186 58.2737ZM174.594 55.0474H177.579C177.579 54.5166 177.447 54.1081 177.181 53.8218C176.916 53.5355 176.549 53.3923 176.081 53.3923C175.676 53.3923 175.341 53.5334 175.076 53.8155C174.81 54.099 174.65 54.5096 174.594 55.0474ZM184.001 57.6347L183.288 58.2423L181.455 55.9692L179.643 58.2213L178.973 57.6347L180.91 55.3826L179.046 53.2247L179.779 52.5857L181.466 54.7645L183.121 52.6276L183.823 53.2247L182.01 55.3407L184.001 57.6347ZM185.884 58.148H184.941V52.7009H185.884V58.148ZM185.413 51.7687C185.231 51.7687 185.076 51.7023 184.948 51.5696C184.818 51.4369 184.753 51.2833 184.753 51.1087C184.753 50.9062 184.812 50.7456 184.931 50.6269C185.05 50.5082 185.21 50.4488 185.413 50.4488C185.594 50.4488 185.75 50.513 185.88 50.6415C186.008 50.7714 186.073 50.9272 186.073 51.1087C186.073 51.3043 186.013 51.4628 185.895 51.5843C185.776 51.7072 185.615 51.7687 185.413 51.7687ZM189.467 58.2737C188.943 58.2737 188.529 58.1005 188.226 57.7541C187.922 57.4091 187.77 56.9154 187.77 56.2729V53.717H186.827V52.9H187.791L187.99 51.1821H188.712V52.9H190.221V53.717H188.712V56.3463C188.712 56.7513 188.798 57.0341 188.97 57.1948C189.14 57.3554 189.344 57.4357 189.582 57.4357C189.756 57.4357 189.923 57.4077 190.08 57.3519C190.237 57.296 190.381 57.2297 190.514 57.1529L190.776 57.9071C190.636 57.9909 190.448 58.0733 190.21 58.1543C189.973 58.2339 189.725 58.2737 189.467 58.2737ZM191.75 60.5782C191.541 60.5782 191.357 60.5573 191.199 60.5154C191.043 60.4735 190.919 60.4246 190.828 60.3687L191.038 59.5831C191.122 59.632 191.226 59.6739 191.352 59.7088C191.478 59.7437 191.617 59.7611 191.771 59.7611C192.064 59.7611 192.326 59.6669 192.557 59.4783C192.787 59.2898 193.007 58.9196 193.217 58.368L193.458 57.7395H192.955L190.828 52.9523L191.666 52.5752L193.698 57.111L195.28 52.6171L196.15 52.9523L194.149 58.4203C193.946 58.979 193.726 59.4155 193.489 59.7297C193.252 60.044 192.99 60.264 192.703 60.3897C192.417 60.5154 192.099 60.5782 191.75 60.5782ZM206.287 57.8861L205.376 58.2527L204.559 56.1577H201.165L200.348 58.2318L199.5 57.8861L202.37 50.8154H203.459L206.287 57.8861ZM202.862 51.8001L201.479 55.3197H204.234L202.862 51.8001ZM208.173 58.148H207.23V52.7009H208.141V53.6123C208.337 53.319 208.587 53.0725 208.892 52.8727C209.195 52.6744 209.556 52.5752 209.975 52.5752C210.589 52.5752 211.049 52.7603 211.353 53.1304C211.656 53.5005 211.808 53.9894 211.808 54.5969V58.148H210.865V54.7017C210.865 54.3106 210.773 53.9964 210.588 53.7589C210.403 53.5215 210.146 53.4028 209.818 53.4028C209.496 53.4028 209.193 53.5159 208.906 53.7422C208.62 53.9698 208.375 54.2373 208.173 54.5446V58.148ZM215.516 58.2737C215.062 58.2737 214.65 58.1585 214.28 57.928C213.91 57.6976 213.614 57.3707 213.394 56.9475C213.174 56.5257 213.065 56.0285 213.065 55.4559C213.065 54.9112 213.174 54.4223 213.394 53.9894C213.614 53.5564 213.918 53.2121 214.305 52.9565C214.693 52.7023 215.139 52.5752 215.642 52.5752C215.956 52.5752 216.24 52.629 216.494 52.7366C216.75 52.8455 216.972 52.9803 217.161 53.1409V52.7009H218.02V56.8281C218.02 57.0935 218.084 57.266 218.212 57.3456C218.342 57.4266 218.484 57.4671 218.638 57.4671L218.439 58.2004C217.768 58.2004 217.363 57.928 217.223 57.3833C217.063 57.6068 216.844 57.8107 216.568 57.995C216.293 58.1808 215.942 58.2737 215.516 58.2737ZM215.725 57.4357C215.991 57.4357 216.242 57.3707 216.48 57.2408C216.717 57.1123 216.916 56.9503 217.077 56.7548V53.8323C216.888 53.6996 216.68 53.5927 216.452 53.5117C216.226 53.4321 215.987 53.3923 215.736 53.3923C215.401 53.3923 215.105 53.4775 214.85 53.6479C214.596 53.8197 214.395 54.0578 214.248 54.3623C214.102 54.6654 214.028 55.0194 214.028 55.4245C214.028 55.8155 214.102 56.1626 214.248 56.4657C214.395 56.7702 214.598 57.0076 214.856 57.178C215.114 57.3498 215.404 57.4357 215.725 57.4357ZM221.55 58.2737C221.228 58.2737 220.939 58.2122 220.68 58.0893C220.422 57.9678 220.217 57.7709 220.066 57.4985C219.917 57.2262 219.842 56.8735 219.842 56.4405V50.3964H220.785V56.3463C220.785 56.7234 220.863 57.0027 221.02 57.1843C221.177 57.3658 221.396 57.4566 221.675 57.4566C221.808 57.4566 221.939 57.4406 222.067 57.4084C222.197 57.3777 222.307 57.3414 222.398 57.2995L222.629 58.0642C222.503 58.1201 222.347 58.1689 222.161 58.2108C221.977 58.2527 221.773 58.2737 221.55 58.2737ZM223.234 60.5782C223.024 60.5782 222.842 60.5573 222.685 60.5154C222.527 60.4735 222.403 60.4246 222.312 60.3687L222.522 59.5831C222.605 59.632 222.71 59.6739 222.836 59.7088C222.962 59.7437 223.101 59.7611 223.255 59.7611C223.548 59.7611 223.81 59.6669 224.041 59.4783C224.271 59.2898 224.491 58.9196 224.701 58.368L224.941 57.7395H224.439L222.312 52.9523L223.15 52.5752L225.182 57.111L226.764 52.6171L227.634 52.9523L225.633 58.4203C225.43 58.979 225.21 59.4155 224.973 59.7297C224.735 60.044 224.474 60.264 224.187 60.3897C223.901 60.5154 223.583 60.5782 223.234 60.5782ZM232.316 58.148H228.105V57.4043L231.111 53.518H228.168V52.7009H232.264V53.4237L229.268 57.31H232.316V58.148ZM235.595 58.2737C234.812 58.2737 234.192 58.0237 233.734 57.5237C233.277 57.0251 233.049 56.3253 233.049 55.4245C233.049 54.8798 233.152 54.3923 233.357 53.9621C233.564 53.5334 233.852 53.1947 234.222 52.9461C234.592 52.6988 235.022 52.5752 235.511 52.5752C236.035 52.5752 236.469 52.6884 236.814 52.9146C237.16 53.1423 237.421 53.4482 237.595 53.8323C237.77 54.2163 237.857 54.6388 237.857 55.0997C237.857 55.3442 237.847 55.5816 237.826 55.812H234.013C234.076 56.3218 234.254 56.7199 234.547 57.0062C234.84 57.2925 235.228 57.4357 235.71 57.4357C236.024 57.4357 236.307 57.4022 236.558 57.3351C236.81 57.2695 237.051 57.1843 237.281 57.0795L237.501 57.8861C237.25 57.9978 236.967 58.0907 236.653 58.1647C236.338 58.2374 235.986 58.2737 235.595 58.2737ZM234.002 55.0474H236.988C236.988 54.5166 236.855 54.1081 236.59 53.8218C236.324 53.5355 235.958 53.3923 235.49 53.3923C235.085 53.3923 234.75 53.5334 234.484 53.8155C234.219 54.099 234.058 54.5096 234.002 55.0474ZM240.057 58.148H239.114V52.7009H240.026V53.8846C240.116 53.6542 240.239 53.4391 240.392 53.2394C240.546 53.041 240.738 52.8804 240.968 52.7575C241.199 52.636 241.468 52.5752 241.775 52.5752C241.88 52.5752 241.984 52.5801 242.089 52.5899C242.194 52.6011 242.281 52.6171 242.351 52.6381L242.068 53.6123C241.936 53.5564 241.778 53.5285 241.597 53.5285C241.338 53.5285 241.092 53.6018 240.857 53.7484C240.624 53.8951 240.432 54.1221 240.281 54.4293C240.132 54.7366 240.057 55.1277 240.057 55.6025V58.148Z" fill="#002140"/>
</g>
</g>
</g>
</g>
<g clip-path="url(#clip10_123_137)">
<g clip-path="url(#clip11_123_137)">
<path d="M53.2191 51.2581C54.0607 51.2581 54.743 50.5758 54.743 49.7342C54.743 48.8926 54.0607 48.2103 53.2191 48.2103C52.3775 48.2103 51.6952 48.8926 51.6952 49.7342C51.6952 50.5758 52.3775 51.2581 53.2191 51.2581Z" fill="#002140"/>
<path d="M63.9435 28.8287C64.715 28.8287 65.3405 28.2033 65.3405 27.4318C65.3405 26.6603 64.715 26.0349 63.9435 26.0349C63.1721 26.0349 62.5466 26.6603 62.5466 27.4318C62.5466 28.2033 63.1721 28.8287 63.9435 28.8287Z" fill="#002140"/>
<path d="M42.7156 37.9023C43.5572 37.9023 44.2395 37.22 44.2395 36.3784C44.2395 35.5368 43.5572 34.8545 42.7156 34.8545C41.8739 34.8545 41.1917 35.5368 41.1917 36.3784C41.1917 37.22 41.8739 37.9023 42.7156 37.9023Z" fill="#002140"/>
<path d="M61.4863 16.0545C61.4077 16.1821 61.2856 16.277 61.1426 16.3218C60.9996 16.3666 60.8452 16.3582 60.7079 16.2983C60.56 16.2302 60.413 16.16 60.2672 16.0875C58.7014 15.3192 53.9392 12.9851 50.979 14.589C49.6062 15.3332 48.768 16.8939 48.4848 19.2268C48.481 19.2598 48.4645 19.2877 48.4569 19.3195C48.4467 19.355 48.4391 19.3893 48.4251 19.4223C48.4035 19.4627 48.3775 19.5006 48.3477 19.5354C48.3274 19.5608 48.3121 19.5887 48.288 19.6103C48.2492 19.6437 48.2066 19.6722 48.161 19.6954C48.1369 19.7094 48.1178 19.7271 48.0912 19.7373C48.0162 19.7683 47.936 19.7847 47.855 19.7855H41.8952C41.7511 20.4151 41.398 20.9773 40.8933 21.3804C40.3887 21.7836 39.7625 22.0039 39.1166 22.0054C37.5419 22.0054 36.2618 20.7253 36.2618 19.1506C36.2618 17.5759 37.5419 16.2945 39.1166 16.2945C40.4716 16.2945 41.6056 17.247 41.8952 18.5156H47.314C47.7178 16.0596 48.7401 14.3579 50.3719 13.4727C53.5112 11.7672 57.9636 13.5883 60.1199 14.6068C60.1085 6.9339 53.8604 0.693481 46.1825 0.693481C43.0661 0.693481 40.0322 1.75006 37.5838 3.67908C35.1317 1.74837 32.1023 0.696981 28.9813 0.693481C21.2983 0.693481 15.0477 6.94406 15.0477 14.6271C15.0477 14.6792 15.0515 14.7274 15.0528 14.7795C17.2091 13.7674 21.6615 11.9552 24.7906 13.6594C26.5431 14.6131 27.5996 16.4977 27.9336 19.2598C27.9349 19.2738 27.9298 19.2852 27.9311 19.2992C27.9311 19.3119 27.9387 19.3233 27.9387 19.336V24.3992H32.5828C32.7267 23.7694 33.0797 23.2069 33.5843 22.8035C34.089 22.4001 34.7154 22.1797 35.3614 22.1781C36.9361 22.1781 38.2175 23.4594 38.2175 25.0341C38.2175 26.6089 36.9361 27.8902 35.3614 27.8902C34.7154 27.8886 34.089 27.6682 33.5843 27.2648C33.0797 26.8614 32.7267 26.2989 32.5828 25.6691H27.3037C27.1353 25.6691 26.9738 25.6022 26.8548 25.4831C26.7357 25.3641 26.6688 25.2026 26.6688 25.0341V19.3843C26.3843 17.0692 25.55 15.5186 24.1848 14.7744C21.2373 13.1718 16.4738 15.4932 14.9067 16.2577C14.7035 16.3567 14.5473 16.4329 14.4483 16.4761C14.3717 16.5094 14.2894 16.5272 14.206 16.5286C14.1225 16.53 14.0396 16.5149 13.962 16.4842C13.8844 16.4536 13.8136 16.4079 13.7537 16.3499C13.6937 16.2918 13.6458 16.2225 13.6127 16.1459C13.6063 16.132 13.6089 16.1167 13.6038 16.1015C11.4329 17.4034 9.63656 19.2459 8.39015 21.4491C7.14374 23.6524 6.48982 26.1411 6.49219 28.6725C6.49219 34.6043 10.0747 39.9151 15.496 42.187C17.0034 40.0142 19.6512 37.882 23.5168 36.6972C23.4267 31.987 21.4443 28.068 19.1 28.068H13.7613C13.6198 28.6353 13.2932 29.1392 12.8332 29.5C12.3732 29.8609 11.806 30.0581 11.2214 30.0605C9.77241 30.0605 8.59392 28.882 8.59392 27.433C8.59392 25.9841 9.77241 24.8056 11.2214 24.8056C12.4494 24.8056 13.4755 25.6564 13.7613 26.7981H19.1C22.1669 26.7981 24.5886 30.9469 24.7766 36.3568C26.3784 35.9876 28.0146 35.7876 29.6582 35.7599C29.799 35.1262 30.1514 34.5593 30.6573 34.1526C31.1633 33.7459 31.7927 33.5236 32.4419 33.5223C34.0166 33.5223 35.2979 34.8037 35.2979 36.3771C35.2979 37.9506 34.0166 39.2319 32.4419 39.2319C31.7991 39.2301 31.1758 39.0117 30.6725 38.6119C30.1692 38.2121 29.8155 37.6543 29.6683 37.0286C21.6742 37.2026 17.157 41.0441 15.7157 44.3535C15.6711 44.4485 15.6033 44.5307 15.5185 44.5924C15.4337 44.6541 15.3346 44.6934 15.2306 44.7066C15.1071 45.4934 15.0455 46.2887 15.0464 47.0851C15.0464 55.8451 22.172 62.9732 30.9319 62.9732C32.9244 62.9732 34.8636 62.5795 36.7215 61.8455C35.656 55.52 30.716 50.6816 24.7093 50.3996C24.5596 51.0221 24.2053 51.5763 23.703 51.9733C23.2008 52.3703 22.5798 52.5871 21.9396 52.589C21.1826 52.5883 20.4569 52.2873 19.9217 51.7521C19.3864 51.2169 19.0855 50.4911 19.0848 49.7342C19.0851 48.9771 19.386 48.251 19.9212 47.7155C20.4565 47.18 21.1824 46.8788 21.9396 46.8781C23.3073 46.8781 24.4502 47.8458 24.7283 49.1297C30.7732 49.3951 35.8516 53.817 37.58 59.8492C39.3084 53.8157 44.3868 49.3951 50.4316 49.1297C50.5698 48.4928 50.9216 47.9222 51.4286 47.5127C51.9356 47.1032 52.5674 46.8793 53.2191 46.8781C53.9763 46.8788 54.7022 47.18 55.2375 47.7155C55.7727 48.251 56.0736 48.9771 56.0739 49.7342C56.0732 50.4911 55.7723 51.2169 55.237 51.7521C54.7018 52.2873 53.9761 52.5883 53.2191 52.589C52.5791 52.5868 51.9584 52.3699 51.4564 51.9729C50.9545 51.5759 50.6003 51.0219 50.4507 50.3996C44.4439 50.6816 39.5039 55.5174 38.4372 61.8442C40.2938 62.5782 42.2317 62.9732 44.228 62.9732C52.9905 62.9732 60.1212 55.8464 60.1212 47.0851C60.1212 46.2927 60.0589 45.499 59.9358 44.7078C59.831 44.6953 59.7312 44.6563 59.6457 44.5945C59.5601 44.5328 59.4917 44.4503 59.4468 44.3548C57.9991 41.0454 53.4795 37.2026 45.4891 37.0286C45.3422 37.6547 44.9883 38.213 44.4848 38.6131C43.9812 39.0131 43.3574 39.2316 42.7143 39.2332C41.1409 39.2332 39.8595 37.9518 39.8595 36.3784C39.8595 34.805 41.1409 33.5236 42.7143 33.5236C43.3633 33.5248 43.9925 33.7469 44.4985 34.1534C45.0044 34.5599 45.3569 35.1265 45.498 35.7599C47.2835 35.7968 48.9115 36.0088 50.3821 36.3568C50.5701 30.9469 52.9943 26.7981 56.0638 26.7981H61.4025C61.544 26.2308 61.8706 25.7269 62.3306 25.366C62.7906 25.0052 63.3577 24.808 63.9424 24.8056C65.3914 24.8056 66.5699 25.9841 66.5699 27.433C66.5699 28.882 65.3901 30.0605 63.9424 30.0605C62.7131 30.0605 61.6883 29.2097 61.4025 28.068H56.0638C53.7182 28.068 51.7333 31.987 51.6431 36.6984C55.5088 37.8845 58.1591 40.0167 59.6665 42.1896C62.3323 41.0742 64.6093 39.1963 66.2115 36.7915C67.8138 34.3867 68.6701 31.5622 68.6728 28.6725C68.6728 23.4302 65.9057 18.6756 61.4863 16.0545Z" fill="#002140"/>
<path d="M21.9395 48.1481C21.5324 48.168 21.1486 48.3438 20.8676 48.6389C20.5866 48.9341 20.4298 49.326 20.4298 49.7336C20.4298 50.1411 20.5866 50.5331 20.8676 50.8282C21.1486 51.1234 21.5324 51.2991 21.9395 51.3191C22.3592 51.3184 22.7615 51.1516 23.0585 50.855C23.3555 50.5585 23.523 50.1564 23.5243 49.7367V49.7317C23.5233 49.3118 23.356 48.9094 23.059 48.6126C22.7619 48.3158 22.3594 48.1487 21.9395 48.1481Z" fill="#002140"/>
<path d="M39.1166 20.6758C39.9582 20.6758 40.6405 19.9935 40.6405 19.1518C40.6405 18.3102 39.9582 17.6279 39.1166 17.6279C38.2749 17.6279 37.5927 18.3102 37.5927 19.1518C37.5927 19.9935 38.2749 20.6758 39.1166 20.6758Z" fill="#002140"/>
<path d="M11.2214 28.8287C11.9929 28.8287 12.6183 28.2033 12.6183 27.4318C12.6183 26.6603 11.9929 26.0349 11.2214 26.0349C10.4499 26.0349 9.82446 26.6603 9.82446 27.4318C9.82446 28.2033 10.4499 28.8287 11.2214 28.8287Z" fill="#002140"/>
<path d="M35.3601 26.558C36.2017 26.558 36.884 25.8758 36.884 25.0341C36.884 24.1925 36.2017 23.5102 35.3601 23.5102C34.5185 23.5102 33.8362 24.1925 33.8362 25.0341C33.8362 25.8758 34.5185 26.558 35.3601 26.558Z" fill="#002140"/>
<path d="M32.4418 37.962C33.3155 37.962 34.0279 37.2508 34.0279 36.3771C34.0279 35.5034 33.3168 34.7923 32.4418 34.7923C32.0226 34.7929 31.6206 34.9594 31.3237 35.2554C31.0267 35.5514 30.8589 35.9528 30.8569 36.3721L30.8582 36.3771L30.8569 36.3822C30.8589 36.8015 31.0267 37.2029 31.3237 37.4989C31.6206 37.7948 32.0226 37.9613 32.4418 37.962Z" fill="#002140"/>
</g>
</g>
</g>
</g>
</g>
</g>
<defs>
<clipPath id="clip0_123_137">
<rect width="250" height="63.6667" fill="white"/>
</clipPath>
<clipPath id="clip1_123_137">
<rect width="249.321" height="63.4717" fill="white" transform="translate(0.339355 0.0974731)"/>
</clipPath>
<clipPath id="clip2_123_137">
<rect width="249.321" height="63.4717" fill="white" transform="translate(0.339355 0.0974731)"/>
</clipPath>
<clipPath id="clip3_123_137">
<rect width="249.321" height="63.4717" fill="white" transform="translate(0.339355 0.0974731)"/>
</clipPath>
<clipPath id="clip4_123_137">
<rect width="170.81" height="63.4717" fill="white" transform="translate(77.6127 0.573273)"/>
</clipPath>
<clipPath id="clip5_123_137">
<rect width="170.81" height="63.4717" fill="white" transform="translate(77.6127 0.573273)"/>
</clipPath>
<clipPath id="clip6_123_137">
<rect width="170.81" height="43.1122" fill="white" transform="translate(77.3689 4.18948)"/>
</clipPath>
<clipPath id="clip7_123_137">
<rect width="170.81" height="43.1122" fill="white" transform="translate(77.3689 4.18948)"/>
</clipPath>
<clipPath id="clip8_123_137">
<rect width="162.269" height="10.1818" fill="white" transform="translate(80.0885 50.3964)"/>
</clipPath>
<clipPath id="clip9_123_137">
<rect width="162.269" height="10.1818" fill="white" transform="translate(80.0885 50.3964)"/>
</clipPath>
<clipPath id="clip10_123_137">
<rect width="68.3334" height="62.2797" fill="white" transform="translate(0.339355 0.693481)"/>
</clipPath>
<clipPath id="clip11_123_137">
<rect width="68.3334" height="62.2797" fill="white" transform="translate(0.339355 0.693481)"/>
</clipPath>
</defs>
</svg>
