<svg width="404" height="103" viewBox="0 0 404 103" fill="none" xmlns="http://www.w3.org/2000/svg">
<g clip-path="url(#clip0_123_137)">
<g clip-path="url(#clip1_123_137)">
<g clip-path="url(#clip2_123_137)">
<g clip-path="url(#clip3_123_137)">
<g clip-path="url(#clip4_123_137)">
<g clip-path="url(#clip5_123_137)">
<g clip-path="url(#clip6_123_137)">
<g clip-path="url(#clip7_123_137)">
<path d="M165.74 58.2529L167.574 64.2498C165.161 65.0047 162.609 65.6161 159.919 66.0839C157.229 66.5518 154.278 66.7857 151.067 66.7857C143.114 66.7857 137.117 64.4093 133.077 59.6564C129.026 54.9036 127 47.9073 127 38.6674C127 28.8534 129.026 21.4531 133.077 16.4663C137.117 11.4902 143.114 9.00217 151.067 9.00217C154.076 9.00217 156.782 9.25735 159.185 9.76772C161.578 10.2887 163.89 10.9639 166.123 11.7933L164.098 17.5668C163.034 17.1734 161.987 16.8225 160.956 16.5142C159.914 16.1952 158.866 15.9347 157.814 15.7327C156.761 15.52 155.676 15.3658 154.56 15.2702C153.444 15.1638 152.279 15.1107 151.067 15.1107C148.186 15.1107 145.703 15.621 143.619 16.6418C141.546 17.6731 139.834 19.167 138.483 21.1235C137.133 23.0799 136.134 25.4669 135.485 28.2846C134.836 31.1023 134.512 34.3027 134.512 37.8859C134.512 41.5755 134.836 44.8344 135.485 47.6627C136.134 50.491 137.133 52.8728 138.483 54.8079C139.834 56.7431 141.546 58.2051 143.619 59.1939C145.703 60.1721 148.186 60.6612 151.067 60.6612C153.715 60.6612 156.229 60.4433 158.611 60.0073C161.003 59.5607 163.38 58.9759 165.74 58.2529ZM224.178 37.854C224.178 47.2215 222.062 54.3826 217.83 59.3375C213.598 64.3029 207.527 66.7857 199.616 66.7857C191.769 66.7857 185.714 64.3136 181.45 59.3694C177.176 54.4145 175.039 47.2427 175.039 37.854C175.039 28.476 177.181 21.3202 181.466 16.3866C185.751 11.4636 191.801 9.00217 199.616 9.00217C207.527 9.00217 213.598 11.4849 217.83 16.4504C222.062 21.4265 224.178 28.5611 224.178 37.854ZM216.666 37.854C216.666 30.6344 215.246 25.0363 212.407 21.0597C209.558 17.0937 205.278 15.1107 199.568 15.1107C193.837 15.1107 189.568 17.1149 186.761 21.1235C183.954 25.132 182.551 30.7089 182.551 37.854C182.551 41.3522 182.886 44.4835 183.555 47.2481C184.215 50.0126 185.225 52.3996 186.586 54.4092C187.947 56.4294 189.728 57.9765 191.929 59.0504C194.119 60.1243 196.666 60.6612 199.568 60.6612C205.278 60.6612 209.558 58.6729 212.407 54.6963C215.246 50.709 216.666 45.0949 216.666 37.854ZM247.384 65.8447H235.549V9.84747H247.384C250.573 9.84747 253.54 10.0123 256.283 10.3419C259.027 10.6609 261.536 11.2244 263.811 12.0325C266.097 12.8406 268.107 13.9092 269.84 15.2383C271.562 16.578 273.046 18.2845 274.29 20.3579C275.513 22.4419 276.432 24.9087 277.049 27.7583C277.676 30.6185 277.99 33.9837 277.99 37.854C277.99 41.7137 277.676 45.0737 277.049 47.9339C276.432 50.7941 275.513 53.2609 274.29 55.3342C273.046 57.4076 271.562 59.1142 269.84 60.4539C268.107 61.7936 266.097 62.8622 263.811 63.6597C261.536 64.4677 259.027 65.0313 256.283 65.3503C253.54 65.6799 250.573 65.8447 247.384 65.8447ZM242.87 59.8478H248.596C252.562 59.8478 255.927 59.4544 258.692 58.6676C261.456 57.8701 263.721 56.5783 265.486 54.792C267.23 52.995 268.495 50.7143 269.282 47.9498C270.079 45.1853 270.478 41.8201 270.478 37.854C270.478 33.8774 270.079 30.5068 269.282 27.7423C268.495 24.9778 267.23 22.7024 265.486 20.9161C263.721 19.1192 261.456 17.8273 258.692 17.0405C255.927 16.243 252.562 15.8443 248.596 15.8443H242.87V59.8478ZM289.122 65.8447V9.84747H320.191V15.8443H296.443V31.299H313.269V37.2958H296.443V59.8478H321.084V65.8447H289.122ZM334.019 65.8447V9.84747H341.34V65.8447H334.019ZM378.405 9.00217C382.371 9.00217 385.88 9.6295 388.932 10.8842C391.983 12.1388 394.546 13.9942 396.619 16.4504C398.703 18.9065 400.282 21.9262 401.356 25.5095C402.43 29.0927 402.967 33.2076 402.967 37.854C402.967 45.382 401.617 51.4692 398.916 56.1157C396.215 60.7622 392.297 63.8989 387.161 65.5257C388.437 66.4614 389.533 67.2801 390.447 67.9819C391.372 68.6836 392.281 69.3003 393.174 69.8319C394.067 70.3636 395.03 70.8474 396.061 71.2833C397.082 71.7086 398.347 72.1286 399.857 72.5433C399.549 73.6278 399.192 74.6645 398.788 75.6534C398.384 76.6422 397.948 77.6417 397.48 78.6518C396.492 78.3966 395.572 78.1148 394.721 77.8065C393.86 77.4875 392.999 77.126 392.138 76.7219C391.287 76.3285 390.415 75.8447 389.522 75.2706C388.618 74.6964 387.624 74.0159 386.539 73.2291C385.444 72.4316 384.237 71.5066 382.919 70.454C381.59 69.4013 380.085 68.1786 378.405 66.7857C374.535 66.7857 371.074 66.169 368.023 64.9356C364.971 63.7022 362.392 61.868 360.287 59.4331C358.193 57.0089 356.592 53.9945 355.487 50.39C354.381 46.7749 353.828 42.5962 353.828 37.854C353.828 33.1225 354.381 28.9598 355.487 25.3659C356.592 21.7721 358.193 18.763 360.287 16.3387C362.392 13.9038 364.971 12.075 368.023 10.8523C371.074 9.61886 374.535 9.00217 378.405 9.00217ZM378.358 15.1107C375.402 15.1107 372.844 15.6476 370.686 16.7215C368.538 17.7954 366.773 19.3265 365.391 21.3149C364.019 23.3032 363.004 25.7009 362.345 28.5079C361.675 31.3043 361.34 34.4197 361.34 37.854C361.34 41.299 361.675 44.4304 362.345 47.2481C363.004 50.0657 364.019 52.4687 365.391 54.457C366.773 56.4454 368.538 57.9765 370.686 59.0504C372.844 60.1243 375.402 60.6612 378.358 60.6612C381.271 60.6612 383.801 60.1349 385.949 59.0823C388.108 58.0403 389.889 56.5304 391.292 54.5527C392.696 52.575 393.738 50.1827 394.418 47.3756C395.109 44.558 395.455 41.3841 395.455 37.854C395.455 34.3453 395.109 31.182 394.418 28.3643C393.738 25.5467 392.696 23.1596 391.292 21.2032C389.889 19.2468 388.108 17.7423 385.949 16.6896C383.801 15.637 381.271 15.1107 378.358 15.1107Z" fill="#002140"/>
</g>
</g>
<g clip-path="url(#clip8_123_137)">
<g clip-path="url(#clip9_123_137)">
<path d="M142.373 95.7542L140.9 96.3465L139.58 92.9618H134.097L132.777 96.3127L131.406 95.7542L136.043 84.3306H137.803L142.373 95.7542ZM136.838 85.9214L134.605 91.6078H139.055L136.838 85.9214ZM145.673 96.1773H144.065V84.3306H145.673V96.1773ZM155.15 91.0663H149.396V89.6785H155.15V91.0663ZM160.478 96.1773H158.87V84.3644C159.333 84.308 159.844 84.2662 160.403 84.2392C160.961 84.2098 161.538 84.1952 162.136 84.1952C163.118 84.1952 163.953 84.3509 164.641 84.6623C165.329 84.9714 165.854 85.3968 166.215 85.9383C166.576 86.4799 166.757 87.1004 166.757 87.8C166.757 88.6462 166.548 89.3626 166.13 89.9493C165.713 90.536 165.132 90.9839 164.387 91.2931C163.643 91.6045 162.779 91.7602 161.798 91.7602C161.324 91.7602 160.884 91.7432 160.478 91.7094V96.1773ZM162.001 90.4232C163.005 90.4232 163.784 90.1975 164.336 89.7462C164.889 89.2949 165.166 88.6913 165.166 87.9353C165.166 87.202 164.901 86.6209 164.37 86.1922C163.84 85.7634 163.084 85.5491 162.103 85.5491C161.798 85.5491 161.51 85.5547 161.239 85.566C160.969 85.5773 160.715 85.5942 160.478 85.6168V90.3385C160.658 90.3611 160.878 90.3814 161.138 90.3995C161.397 90.4153 161.685 90.4232 162.001 90.4232ZM171.986 96.3804C171.151 96.3804 170.401 96.1852 169.735 95.7948C169.07 95.4067 168.548 94.8651 168.171 94.1701C167.792 93.4774 167.603 92.6797 167.603 91.7771C167.603 90.8293 167.795 90.0114 168.178 89.3231C168.562 88.6349 169.086 88.1046 169.752 87.7323C170.418 87.3599 171.162 87.1738 171.986 87.1738C172.81 87.1738 173.552 87.3599 174.213 87.7323C174.872 88.1046 175.397 88.6315 175.787 89.313C176.175 89.9967 176.369 90.8068 176.369 91.7432C176.369 92.6797 176.178 93.4943 175.794 94.187C175.41 94.8821 174.889 95.4214 174.23 95.805C173.569 96.1886 172.821 96.3804 171.986 96.3804ZM171.986 95.0265C172.877 95.0265 173.571 94.7241 174.068 94.1194C174.564 93.5169 174.812 92.7361 174.812 91.7771C174.812 91.1904 174.688 90.6511 174.44 90.1592C174.192 89.6695 173.857 89.2746 173.435 88.9745C173.011 88.6766 172.528 88.5277 171.986 88.5277C171.095 88.5277 170.401 88.821 169.904 89.4077C169.408 89.9944 169.16 90.7729 169.16 91.7432C169.16 92.3299 169.284 92.8738 169.532 93.3747C169.78 93.8779 170.117 94.2784 170.541 94.5763C170.963 94.8764 171.445 95.0265 171.986 95.0265ZM181.751 96.1773H180.076L177.3 87.783L178.705 87.2922L180.973 94.4511L183.037 88.003H184.679L186.693 94.4511L188.944 87.2922L190.298 87.783L187.505 96.1773H185.83L183.799 89.6277L181.751 96.1773ZM195.426 96.3804C194.162 96.3804 193.16 95.9765 192.42 95.1686C191.682 94.3631 191.313 93.2325 191.313 91.7771C191.313 90.897 191.479 90.1095 191.811 89.4145C192.145 88.7217 192.611 88.1745 193.209 87.7729C193.807 87.3735 194.501 87.1738 195.29 87.1738C196.137 87.1738 196.838 87.3566 197.396 87.7221C197.955 88.0899 198.376 88.5841 198.658 89.2046C198.94 89.8252 199.081 90.5078 199.081 91.2524C199.081 91.6473 199.064 92.0309 199.031 92.4033H192.87C192.972 93.2269 193.259 93.87 193.733 94.3326C194.207 94.7952 194.833 95.0265 195.612 95.0265C196.12 95.0265 196.577 94.9723 196.983 94.864C197.389 94.7579 197.778 94.6203 198.15 94.4511L198.506 95.7542C198.1 95.9347 197.643 96.0848 197.135 96.2044C196.627 96.3217 196.058 96.3804 195.426 96.3804ZM192.853 91.1678H197.677C197.677 90.3103 197.462 89.6503 197.033 89.1877C196.605 88.7251 196.012 88.4938 195.256 88.4938C194.602 88.4938 194.061 88.7217 193.632 89.1776C193.203 89.6356 192.944 90.2991 192.853 91.1678ZM202.632 96.1773H201.109V87.3769H202.581V89.2893C202.728 88.9169 202.925 88.5694 203.173 88.2467C203.422 87.9263 203.732 87.6668 204.104 87.4682C204.477 87.2719 204.911 87.1738 205.407 87.1738C205.577 87.1738 205.746 87.1817 205.915 87.1975C206.084 87.2155 206.225 87.2415 206.338 87.2753L205.881 88.8492C205.667 88.759 205.413 88.7138 205.12 88.7138C204.702 88.7138 204.305 88.8323 203.928 89.0693C203.549 89.3062 203.239 89.6729 202.997 90.1693C202.754 90.6657 202.632 91.2976 202.632 92.0648V96.1773ZM210.874 96.3804C209.61 96.3804 208.609 95.9765 207.872 95.1686C207.131 94.3631 206.761 93.2325 206.761 91.7771C206.761 90.897 206.927 90.1095 207.259 89.4145C207.593 88.7217 208.059 88.1745 208.657 87.7729C209.255 87.3735 209.949 87.1738 210.738 87.1738C211.585 87.1738 212.286 87.3566 212.844 87.7221C213.403 88.0899 213.824 88.5841 214.106 89.2046C214.388 89.8252 214.529 90.5078 214.529 91.2524C214.529 91.6473 214.513 92.0309 214.479 92.4033H208.318C208.42 93.2269 208.708 93.87 209.181 94.3326C209.655 94.7952 210.282 95.0265 211.06 95.0265C211.568 95.0265 212.025 94.9723 212.431 94.864C212.837 94.7579 213.226 94.6203 213.599 94.4511L213.954 95.7542C213.548 95.9347 213.091 96.0848 212.583 96.2044C212.075 96.3217 211.506 96.3804 210.874 96.3804ZM208.301 91.1678H213.125C213.125 90.3103 212.91 89.6503 212.482 89.1877C212.053 88.7251 211.461 88.4938 210.705 88.4938C210.05 88.4938 209.509 88.7217 209.08 89.1776C208.651 89.6356 208.392 90.2991 208.301 91.1678ZM219.894 96.3804C219.172 96.3804 218.512 96.1942 217.914 95.8219C217.316 95.4496 216.842 94.9215 216.493 94.2378C216.143 93.5563 215.968 92.753 215.968 91.8279C215.968 90.9365 216.145 90.1411 216.499 89.4416C216.856 88.7421 217.33 88.1892 217.921 87.783C218.514 87.3769 219.167 87.1738 219.877 87.1738C220.464 87.1738 220.968 87.2922 221.39 87.5292C221.815 87.7661 222.145 88.0087 222.382 88.2569V83.6536H223.905V94.0449C223.905 94.4736 224.009 94.7523 224.217 94.8809C224.427 95.0118 224.656 95.0772 224.904 95.0772L224.582 96.2619C223.51 96.2619 222.856 95.8332 222.619 94.9757C222.371 95.3255 222.023 95.647 221.577 95.9404C221.132 96.2337 220.571 96.3804 219.894 96.3804ZM220.233 95.0265C220.65 95.0265 221.047 94.9272 221.424 94.7286C221.803 94.5323 222.123 94.2762 222.382 93.9603V89.5939C222.168 89.3231 221.869 89.0715 221.485 88.8391C221.102 88.6089 220.678 88.4938 220.216 88.4938C219.674 88.4938 219.2 88.6405 218.794 88.9339C218.388 89.2272 218.074 89.6187 217.853 90.1084C217.634 90.6003 217.525 91.1565 217.525 91.7771C217.525 92.3976 217.643 92.9527 217.88 93.4424C218.117 93.9343 218.441 94.3213 218.852 94.6034C219.265 94.8854 219.725 95.0265 220.233 95.0265ZM236.73 96.3804C235.704 96.3804 234.795 96.1344 234.005 95.6425C233.216 95.1528 232.601 94.4533 232.161 93.5439C231.721 92.6368 231.501 91.5571 231.501 90.3047C231.501 89.0975 231.724 88.0279 232.171 87.0959C232.615 86.1662 233.247 85.4396 234.066 84.9161C234.883 84.3903 235.839 84.1275 236.933 84.1275C237.497 84.1275 238.011 84.1805 238.473 84.2865C238.936 84.3949 239.37 84.5449 239.777 84.7367L239.286 86.0906C238.936 85.9214 238.578 85.786 238.213 85.6845C237.845 85.5829 237.413 85.5322 236.916 85.5322C236.194 85.5322 235.549 85.7183 234.98 86.0906C234.409 86.463 233.96 86.9989 233.633 87.6984C233.306 88.3979 233.142 89.2441 233.142 90.237C233.142 91.1847 233.304 92.014 233.626 92.7248C233.947 93.4356 234.392 93.9885 234.963 94.3834C235.532 94.7783 236.183 94.9757 236.916 94.9757C237.469 94.9757 237.949 94.908 238.355 94.7726C238.761 94.6372 239.156 94.4623 239.54 94.248L240.03 95.585C239.613 95.8106 239.137 95.999 238.602 96.1502C238.065 96.3037 237.441 96.3804 236.73 96.3804ZM245.26 96.3804C244.425 96.3804 243.675 96.1852 243.009 95.7948C242.343 95.4067 241.821 94.8651 241.442 94.1701C241.065 93.4774 240.877 92.6797 240.877 91.7771C240.877 90.8293 241.068 90.0114 241.452 89.3231C241.836 88.6349 242.36 88.1046 243.026 87.7323C243.692 87.3599 244.436 87.1738 245.26 87.1738C246.084 87.1738 246.825 87.3599 247.484 87.7323C248.145 88.1046 248.67 88.6315 249.058 89.313C249.448 89.9967 249.643 90.8068 249.643 91.7432C249.643 92.6797 249.451 93.4943 249.068 94.187C248.684 94.8821 248.162 95.4214 247.501 95.805C246.842 96.1886 246.095 96.3804 245.26 96.3804ZM245.26 95.0265C246.151 95.0265 246.845 94.7241 247.342 94.1194C247.838 93.5169 248.086 92.7361 248.086 91.7771C248.086 91.1904 247.962 90.6511 247.714 90.1592C247.466 89.6695 247.129 89.2746 246.705 88.9745C246.283 88.6766 245.801 88.5277 245.26 88.5277C244.369 88.5277 243.675 88.821 243.178 89.4077C242.682 89.9944 242.434 90.7729 242.434 91.7432C242.434 92.3299 242.558 92.8738 242.806 93.3747C243.054 93.8779 243.389 94.2784 243.811 94.5763C244.235 94.8764 244.718 95.0265 245.26 95.0265ZM253.197 96.1773H251.674V87.3769H253.146V88.8492C253.462 88.3754 253.863 87.9771 254.348 87.6544C254.833 87.334 255.386 87.1738 256.007 87.1738C256.706 87.1738 257.278 87.343 257.723 87.6815C258.169 88.02 258.483 88.4713 258.664 89.0354C259.013 88.5164 259.427 88.0764 259.906 87.7153C260.387 87.3543 260.982 87.1738 261.693 87.1738C262.652 87.1738 263.365 87.475 263.832 88.0775C264.302 88.6823 264.536 89.4698 264.536 90.4401V96.1773H263.013V90.5586C263.013 89.9493 262.872 89.4551 262.59 89.076C262.308 88.6992 261.919 88.5108 261.422 88.5108C260.915 88.5108 260.443 88.6992 260.007 89.076C259.574 89.4551 259.194 89.8985 258.867 90.4062V96.1773H257.344V90.5586C257.344 89.9493 257.203 89.4551 256.92 89.076C256.638 88.6992 256.249 88.5108 255.753 88.5108C255.256 88.5108 254.788 88.6935 254.348 89.0591C253.908 89.4269 253.524 89.859 253.197 90.3555V96.1773ZM269.001 99.9006H267.478V89.6277C267.478 89.2441 267.385 88.97 267.2 88.8052C267.013 88.6428 266.772 88.5615 266.479 88.5615L266.801 87.3769C267.839 87.3769 268.487 87.7887 268.747 88.6123C268.86 88.4431 269.044 88.2456 269.299 88.02C269.551 87.7943 269.867 87.5969 270.246 87.4276C270.623 87.2584 271.054 87.1738 271.539 87.1738C272.216 87.1738 272.852 87.3509 273.445 87.7052C274.036 88.0617 274.512 88.5751 274.873 89.2453C275.234 89.9177 275.415 90.7334 275.415 91.6925C275.415 92.6289 275.234 93.4492 274.873 94.1532C274.512 94.8595 274.042 95.4067 273.462 95.7948C272.88 96.1852 272.25 96.3804 271.573 96.3804C271.054 96.3804 270.569 96.2755 270.118 96.0656C269.666 95.858 269.294 95.6188 269.001 95.348V99.9006ZM271.269 95.0265C272.036 95.0265 272.66 94.7241 273.14 94.1194C273.619 93.5169 273.858 92.7248 273.858 91.7432C273.858 91.0663 273.737 90.4852 273.496 90.0001C273.252 89.5149 272.931 89.1426 272.531 88.8831C272.129 88.6236 271.686 88.4938 271.201 88.4938C270.716 88.4938 270.279 88.6146 269.891 88.856C269.501 89.0997 269.204 89.3626 269.001 89.6447V93.9772C269.294 94.2818 269.633 94.5323 270.016 94.7286C270.4 94.9272 270.817 95.0265 271.269 95.0265ZM280.204 96.3804C279.685 96.3804 279.217 96.2811 278.8 96.0825C278.382 95.8862 278.053 95.568 277.811 95.128C277.568 94.688 277.446 94.1182 277.446 93.4187V83.6536H278.969V93.2664C278.969 93.8756 279.096 94.327 279.351 94.6203C279.604 94.9136 279.956 95.0603 280.408 95.0603C280.622 95.0603 280.834 95.0344 281.044 94.9825C281.251 94.9328 281.429 94.8742 281.575 94.8065L281.948 96.0419C281.745 96.1322 281.494 96.2111 281.196 96.2788C280.896 96.3465 280.565 96.3804 280.204 96.3804ZM286.652 96.3804C285.389 96.3804 284.387 95.9765 283.647 95.1686C282.909 94.3631 282.54 93.2325 282.54 91.7771C282.54 90.897 282.706 90.1095 283.037 89.4145C283.371 88.7217 283.837 88.1745 284.435 87.7729C285.033 87.3735 285.727 87.1738 286.517 87.1738C287.363 87.1738 288.065 87.3566 288.622 87.7221C289.182 88.0899 289.603 88.5841 289.885 89.2046C290.167 89.8252 290.308 90.5078 290.308 91.2524C290.308 91.6473 290.291 92.0309 290.257 92.4033H284.097C284.198 93.2269 284.486 93.87 284.96 94.3326C285.434 94.7952 286.06 95.0265 286.839 95.0265C287.346 95.0265 287.803 94.9723 288.209 94.864C288.616 94.7579 289.005 94.6203 289.377 94.4511L289.733 95.7542C289.326 95.9347 288.869 96.0848 288.362 96.2044C287.854 96.3217 287.284 96.3804 286.652 96.3804ZM284.08 91.1678H288.903C288.903 90.3103 288.689 89.6503 288.26 89.1877C287.831 88.7251 287.239 88.4938 286.483 88.4938C285.829 88.4938 285.287 88.7217 284.858 89.1776C284.43 89.6356 284.17 90.2991 284.08 91.1678ZM299.278 95.348L298.127 96.3296L295.165 92.6571L292.237 96.2958L291.154 95.348L294.285 91.7094L291.273 88.2231L292.457 87.1907L295.182 90.7109L297.856 87.2584L298.99 88.2231L296.062 91.6417L299.278 95.348ZM302.321 96.1773H300.797V87.3769H302.321V96.1773ZM301.559 85.8706C301.266 85.8706 301.015 85.7634 300.808 85.5491C300.598 85.3347 300.493 85.0865 300.493 84.8044C300.493 84.4772 300.589 84.2177 300.781 84.0259C300.972 83.8341 301.232 83.7382 301.559 83.7382C301.852 83.7382 302.104 83.842 302.314 84.0496C302.521 84.2595 302.625 84.5111 302.625 84.8044C302.625 85.1203 302.529 85.3765 302.338 85.5728C302.146 85.7713 301.886 85.8706 301.559 85.8706ZM308.109 96.3804C307.262 96.3804 306.594 96.1006 306.105 95.541C305.613 94.9836 305.367 94.1859 305.367 93.1479V89.0185H303.844V87.6984H305.401L305.722 84.9229H306.89V87.6984H309.327V89.0185H306.89V93.2664C306.89 93.9208 307.029 94.3777 307.306 94.6372C307.582 94.8967 307.911 95.0265 308.295 95.0265C308.577 95.0265 308.845 94.9813 309.1 94.8911C309.353 94.8008 309.587 94.6936 309.801 94.5695L310.224 95.788C309.998 95.9234 309.694 96.0566 309.31 96.1875C308.927 96.3161 308.526 96.3804 308.109 96.3804ZM311.798 100.104C311.46 100.104 311.163 100.07 310.908 100.002C310.655 99.9344 310.455 99.8554 310.309 99.7652L310.647 98.4959C310.783 98.5749 310.952 98.6426 311.155 98.699C311.358 98.7554 311.584 98.7836 311.832 98.7836C312.306 98.7836 312.729 98.6313 313.101 98.3266C313.473 98.022 313.829 97.424 314.167 96.5327L314.557 95.5173H313.744L310.309 87.783L311.663 87.1738L314.946 94.5018L317.501 87.2415L318.906 87.783L315.674 96.6173C315.346 97.5199 314.991 98.2251 314.607 98.7328C314.224 99.2405 313.801 99.5959 313.338 99.799C312.875 100.002 312.362 100.104 311.798 100.104ZM335.285 95.7542L333.813 96.3465L332.493 92.9618H327.009L325.689 96.3127L324.318 95.7542L328.955 84.3306H330.716L335.285 95.7542ZM329.751 85.9214L327.517 91.6078H331.968L329.751 85.9214ZM338.331 96.1773H336.808V87.3769H338.281V88.8492C338.596 88.3754 339 87.9771 339.492 87.6544C339.982 87.334 340.565 87.1738 341.242 87.1738C342.235 87.1738 342.978 87.4728 343.469 88.0707C343.959 88.6687 344.204 89.4585 344.204 90.4401V96.1773H342.681V90.6093C342.681 89.9775 342.532 89.4698 342.234 89.0862C341.934 88.7026 341.519 88.5108 340.988 88.5108C340.469 88.5108 339.979 88.6935 339.516 89.0591C339.053 89.4269 338.659 89.859 338.331 90.3555V96.1773ZM350.195 96.3804C349.462 96.3804 348.796 96.1942 348.198 95.8219C347.6 95.4496 347.123 94.9215 346.766 94.2378C346.412 93.5563 346.235 92.753 346.235 91.8279C346.235 90.9478 346.412 90.158 346.766 89.4585C347.123 88.759 347.614 88.2027 348.239 87.7898C348.866 87.3791 349.586 87.1738 350.398 87.1738C350.906 87.1738 351.365 87.2606 351.776 87.4344C352.189 87.6104 352.547 87.8282 352.852 88.0877V87.3769H354.24V94.0449C354.24 94.4736 354.344 94.7523 354.551 94.8809C354.761 95.0118 354.99 95.0772 355.238 95.0772L354.917 96.2619C353.834 96.2619 353.179 95.8219 352.954 94.9419C352.694 95.3029 352.341 95.6324 351.894 95.9302C351.45 96.2303 350.883 96.3804 350.195 96.3804ZM350.533 95.0265C350.962 95.0265 351.368 94.9215 351.752 94.7117C352.136 94.5041 352.457 94.2423 352.717 93.9264V89.2046C352.412 88.9903 352.076 88.8176 351.708 88.6868C351.342 88.5581 350.957 88.4938 350.55 88.4938C350.009 88.4938 349.532 88.6315 349.119 88.9068C348.708 89.1843 348.384 89.5691 348.147 90.061C347.91 90.5507 347.792 91.1227 347.792 91.7771C347.792 92.4089 347.91 92.9697 348.147 93.4593C348.384 93.9512 348.711 94.3348 349.129 94.6101C349.546 94.8877 350.014 95.0265 350.533 95.0265ZM359.943 96.3804C359.424 96.3804 358.956 96.2811 358.538 96.0825C358.121 95.8862 357.79 95.568 357.547 95.128C357.305 94.688 357.185 94.1182 357.185 93.4187V83.6536H358.708V93.2664C358.708 93.8756 358.834 94.327 359.087 94.6203C359.342 94.9136 359.695 95.0603 360.146 95.0603C360.361 95.0603 360.572 95.0344 360.779 94.9825C360.989 94.9328 361.167 94.8742 361.314 94.8065L361.686 96.0419C361.483 96.1322 361.232 96.2111 360.932 96.2788C360.634 96.3465 360.304 96.3804 359.943 96.3804ZM362.665 100.104C362.326 100.104 362.03 100.07 361.778 100.002C361.523 99.9344 361.322 99.8554 361.175 99.7652L361.514 98.4959C361.649 98.5749 361.818 98.6426 362.021 98.699C362.225 98.7554 362.45 98.7836 362.698 98.7836C363.172 98.7836 363.595 98.6313 363.968 98.3266C364.34 98.022 364.695 97.424 365.034 96.5327L365.423 95.5173H364.611L361.175 87.783L362.529 87.1738L365.812 94.5018L368.368 87.2415L369.773 87.783L366.54 96.6173C366.213 97.5199 365.858 98.2251 365.474 98.7328C365.09 99.2405 364.667 99.5959 364.205 99.799C363.742 100.002 363.229 100.104 362.665 100.104ZM377.338 96.1773H370.534V94.9757L375.391 88.6969H370.636V87.3769H377.253V88.5446L372.413 94.8234H377.338V96.1773ZM382.635 96.3804C381.371 96.3804 380.369 95.9765 379.629 95.1686C378.891 94.3631 378.522 93.2325 378.522 91.7771C378.522 90.897 378.688 90.1095 379.02 89.4145C379.354 88.7217 379.82 88.1745 380.418 87.7729C381.016 87.3735 381.71 87.1738 382.499 87.1738C383.346 87.1738 384.047 87.3566 384.605 87.7221C385.164 88.0899 385.585 88.5841 385.867 89.2046C386.149 89.8252 386.29 90.5078 386.29 91.2524C386.29 91.6473 386.273 92.0309 386.24 92.4033H380.079C380.181 93.2269 380.469 93.87 380.942 94.3326C381.416 94.7952 382.042 95.0265 382.821 95.0265C383.329 95.0265 383.786 94.9723 384.192 94.864C384.598 94.7579 384.987 94.6203 385.36 94.4511L385.715 95.7542C385.309 95.9347 384.852 96.0848 384.344 96.2044C383.836 96.3217 383.267 96.3804 382.635 96.3804ZM380.062 91.1678H384.886C384.886 90.3103 384.671 89.6503 384.243 89.1877C383.814 88.7251 383.221 88.4938 382.466 88.4938C381.811 88.4938 381.27 88.7217 380.841 89.1776C380.412 89.6356 380.153 90.2991 380.062 91.1678ZM389.844 96.1773H388.321V87.3769H389.794V89.2893C389.94 88.9169 390.138 88.5694 390.386 88.2467C390.634 87.9263 390.944 87.6668 391.317 87.4682C391.689 87.2719 392.123 87.1738 392.62 87.1738C392.789 87.1738 392.958 87.1817 393.128 87.1975C393.297 87.2155 393.438 87.2415 393.551 87.2753L393.094 88.8492C392.879 88.759 392.626 88.7138 392.332 88.7138C391.915 88.7138 391.516 88.8323 391.137 89.0693C390.761 89.3062 390.45 89.6729 390.207 90.1693C389.965 90.6657 389.844 91.2976 389.844 92.0648V96.1773Z" fill="#002140"/>
</g>
</g>
</g>
</g>
<g clip-path="url(#clip10_123_137)">
<g clip-path="url(#clip11_123_137)">
<path d="M94.3242 72.455C95.4203 72.455 96.309 71.5567 96.309 70.4486C96.309 69.3405 95.4203 68.4421 94.3242 68.4421C93.228 68.4421 92.3394 69.3405 92.3394 70.4486C92.3394 71.5567 93.228 72.455 94.3242 72.455Z" fill="#002140"/>
<path d="M108.292 42.9235C109.297 42.9235 110.112 42.1001 110.112 41.0843C110.112 40.0685 109.297 39.2451 108.292 39.2451C107.287 39.2451 106.473 40.0685 106.473 41.0843C106.473 42.1001 107.287 42.9235 108.292 42.9235Z" fill="#002140"/>
<path d="M80.644 54.8702C81.7402 54.8702 82.6288 53.9719 82.6288 52.8638C82.6288 51.7557 81.7402 50.8574 80.644 50.8574C79.5478 50.8574 78.6592 51.7557 78.6592 52.8638C78.6592 53.9719 79.5478 54.8702 80.644 54.8702Z" fill="#002140"/>
<path d="M105.092 26.1045C104.989 26.2725 104.83 26.3974 104.644 26.4564C104.458 26.5154 104.257 26.5044 104.078 26.4256C103.885 26.3359 103.694 26.2434 103.504 26.148C101.465 25.1364 95.262 22.0632 91.4066 24.175C89.6186 25.1548 88.527 27.2097 88.1581 30.2813C88.1532 30.3247 88.1316 30.3615 88.1217 30.4033C88.1085 30.4502 88.0986 30.4953 88.0804 30.5388C88.0522 30.5919 88.0183 30.6418 87.9795 30.6876C87.953 30.721 87.9332 30.7578 87.9017 30.7862C87.8513 30.8302 87.7957 30.8678 87.7363 30.8983C87.7049 30.9166 87.6801 30.9401 87.6454 30.9534C87.5478 30.9943 87.4434 31.0158 87.3377 31.017H79.5755C79.3878 31.8459 78.9279 32.5861 78.2707 33.1169C77.6135 33.6477 76.7978 33.9377 75.9566 33.9397C73.9056 33.9397 72.2384 32.2543 72.2384 30.181C72.2384 28.1076 73.9056 26.4205 75.9566 26.4205C77.7214 26.4205 79.1984 27.6746 79.5755 29.3449H86.6331C87.1591 26.1112 88.4906 23.8707 90.616 22.7053C94.7046 20.4597 100.504 22.8574 103.312 24.1984C103.297 14.096 95.1595 5.87958 85.1594 5.87958C81.1005 5.87958 77.1491 7.27071 73.9602 9.81053C70.7665 7.26849 66.8209 5.88418 62.756 5.87958C52.7493 5.87958 44.6083 14.1093 44.6083 24.2252C44.6083 24.2937 44.6133 24.3573 44.6149 24.4258C47.4234 23.0932 53.2224 20.7072 57.2978 22.9511C59.5803 24.2068 60.9565 26.6881 61.3915 30.3248C61.3931 30.3431 61.3865 30.3582 61.3881 30.3766C61.3881 30.3933 61.3981 30.4084 61.3981 30.4251V37.0915H67.4467C67.6341 36.2622 68.0939 35.5217 68.7511 34.9906C69.4084 34.4594 70.2243 34.1692 71.0657 34.1671C73.1166 34.1671 74.7855 35.8542 74.7855 37.9275C74.7855 40.0008 73.1166 41.6879 71.0657 41.6879C70.2243 41.6858 69.4084 41.3956 68.7511 40.8644C68.0939 40.3333 67.6341 39.5928 67.4467 38.7635H60.5711C60.3517 38.7635 60.1414 38.6754 59.9863 38.5187C59.8312 38.3619 59.7441 38.1492 59.7441 37.9275V30.4886C59.3736 27.4405 58.2869 25.3989 56.5089 24.4191C52.6699 22.309 46.4658 25.3655 44.4247 26.3721C44.1601 26.5025 43.9567 26.6028 43.8276 26.6596C43.728 26.7034 43.6207 26.7269 43.512 26.7287C43.4034 26.7305 43.2954 26.7107 43.1943 26.6703C43.0933 26.6299 43.0011 26.5698 42.923 26.4934C42.8449 26.417 42.7825 26.3257 42.7393 26.2249C42.731 26.2065 42.7343 26.1865 42.7277 26.1664C39.9003 27.8805 37.5607 30.3064 35.9373 33.2073C34.3139 36.1082 33.4622 39.385 33.4653 42.7179C33.4653 50.528 38.1313 57.5204 45.1922 60.5117C47.1555 57.6508 50.6041 54.8435 55.6388 53.2835C55.5214 47.0819 52.9395 41.922 49.8862 41.922H42.9328C42.7485 42.6689 42.3232 43.3324 41.7241 43.8075C41.125 44.2826 40.3863 44.5423 39.6248 44.5454C37.7376 44.5454 36.2027 42.9938 36.2027 41.086C36.2027 39.1782 37.7376 37.6265 39.6248 37.6265C41.2242 37.6265 42.5607 38.7468 42.9328 40.25H49.8862C53.8806 40.25 57.0348 45.7125 57.2796 52.8354C59.3659 52.3493 61.4969 52.0859 63.6376 52.0495C63.821 51.2151 64.2799 50.4688 64.9389 49.9333C65.5979 49.3978 66.4176 49.1051 67.2631 49.1034C69.3141 49.1034 70.983 50.7905 70.983 52.8621C70.983 54.9338 69.3141 56.6209 67.2631 56.6209C66.426 56.6185 65.6141 56.3309 64.9587 55.8045C64.3032 55.2781 63.8424 54.5437 63.6508 53.7199C53.2389 53.949 47.3556 59.0069 45.4783 63.3642C45.4203 63.4892 45.332 63.5974 45.2215 63.6787C45.111 63.7599 44.982 63.8117 44.8465 63.829C44.6857 64.865 44.6055 65.9121 44.6067 66.9607C44.6067 78.4944 53.8873 87.8796 65.2965 87.8796C67.8917 87.8796 70.4173 87.3613 72.8371 86.3948C71.4494 78.0664 65.0154 71.6959 57.192 71.3248C56.997 72.1443 56.5355 72.8739 55.8814 73.3967C55.2272 73.9194 54.4184 74.2049 53.5846 74.2073C52.5987 74.2065 51.6535 73.8102 50.9564 73.1055C50.2593 72.4007 49.8673 71.4452 49.8664 70.4486C49.8668 69.4517 50.2587 68.4957 50.9558 67.7907C51.653 67.0856 52.5984 66.6891 53.5846 66.6882C55.3659 66.6882 56.8545 67.9623 57.2168 69.6527C65.0898 70.0022 71.7041 75.8242 73.9552 83.7664C76.2063 75.8225 82.8207 70.0022 90.6937 69.6527C90.8737 68.8141 91.3318 68.0629 91.9922 67.5237C92.6525 66.9845 93.4754 66.6897 94.3242 66.6882C95.3104 66.6891 96.2558 67.0856 96.953 67.7907C97.6501 68.4957 98.042 69.4517 98.0424 70.4486C98.0415 71.4452 97.6495 72.4007 96.9524 73.1055C96.2553 73.8102 95.3101 74.2065 94.3242 74.2073C93.4907 74.2045 92.6822 73.9188 92.0285 73.3961C91.3747 72.8735 90.9134 72.144 90.7185 71.3248C82.8951 71.6959 76.461 78.0631 75.0717 86.3931C77.4898 87.3596 80.0138 87.8796 82.6139 87.8796C94.0265 87.8796 103.314 78.4961 103.314 66.9607C103.314 65.9174 103.233 64.8724 103.072 63.8307C102.936 63.8141 102.806 63.7628 102.694 63.6815C102.583 63.6002 102.494 63.4916 102.435 63.3659C100.55 59.0085 94.6633 53.949 84.2563 53.7199C84.065 54.5443 83.6041 55.2793 82.9483 55.806C82.2924 56.3328 81.48 56.6205 80.6423 56.6225C78.593 56.6225 76.9242 54.9355 76.9242 52.8638C76.9242 50.7921 78.593 49.1051 80.6423 49.1051C81.4876 49.1067 82.3072 49.3991 82.9661 49.9343C83.6251 50.4695 84.0842 51.2154 84.2679 52.0495C86.5934 52.098 88.7139 52.3772 90.6292 52.8354C90.874 45.7125 94.0315 40.25 98.0292 40.25H104.983C105.167 39.5031 105.592 38.8396 106.191 38.3645C106.79 37.8893 107.529 37.6297 108.291 37.6265C110.178 37.6265 111.713 39.1782 111.713 41.086C111.713 42.9938 110.176 44.5454 108.291 44.5454C106.69 44.5454 105.355 43.4252 104.983 41.922H98.0292C94.9742 41.922 92.389 47.0819 92.2716 53.2852C97.3064 54.8468 100.758 57.6542 102.722 60.515C106.194 59.0465 109.159 56.574 111.246 53.4077C113.333 50.2415 114.448 46.5226 114.452 42.7179C114.452 35.8157 110.848 29.5556 105.092 26.1045Z" fill="#002140"/>
<path d="M53.5845 68.3602C53.0544 68.3865 52.5545 68.6179 52.1885 69.0065C51.8224 69.3951 51.6183 69.9112 51.6183 70.4478C51.6183 70.9844 51.8224 71.5004 52.1885 71.889C52.5545 72.2776 53.0544 72.509 53.5845 72.5353C54.1311 72.5344 54.6552 72.3147 55.042 71.9243C55.4288 71.5339 55.647 71.0045 55.6487 70.4519V70.4453C55.6474 69.8924 55.4295 69.3626 55.0426 68.9718C54.6557 68.581 54.1314 68.3611 53.5845 68.3602Z" fill="#002140"/>
<path d="M75.9565 32.1891C77.0527 32.1891 77.9413 31.2908 77.9413 30.1826C77.9413 29.0745 77.0527 28.1762 75.9565 28.1762C74.8603 28.1762 73.9717 29.0745 73.9717 30.1826C73.9717 31.2908 74.8603 32.1891 75.9565 32.1891Z" fill="#002140"/>
<path d="M39.6248 42.9235C40.6296 42.9235 41.4442 42.1001 41.4442 41.0843C41.4442 40.0685 40.6296 39.2451 39.6248 39.2451C38.62 39.2451 37.8054 40.0685 37.8054 41.0843C37.8054 42.1001 38.62 42.9235 39.6248 42.9235Z" fill="#002140"/>
<path d="M71.064 39.9339C72.1602 39.9339 73.0488 39.0356 73.0488 37.9275C73.0488 36.8194 72.1602 35.9211 71.064 35.9211C69.9678 35.9211 69.0792 36.8194 69.0792 37.9275C69.0792 39.0356 69.9678 39.9339 71.064 39.9339Z" fill="#002140"/>
<path d="M67.263 54.9488C68.401 54.9488 69.3289 54.0125 69.3289 52.8621C69.3289 51.7118 68.4026 50.7754 67.263 50.7754C66.717 50.7763 66.1935 50.9955 65.8067 51.3852C65.42 51.7749 65.2015 52.3034 65.1989 52.8554L65.2005 52.8621L65.1989 52.8688C65.2015 53.4208 65.42 53.9493 65.8067 54.339C66.1935 54.7287 66.717 54.9479 67.263 54.9488Z" fill="#002140"/>
</g>
</g>
</g>
</g>
</g>
</g>
<defs>
<clipPath id="clip0_123_137">
<rect width="403.909" height="102.862" fill="white"/>
</clipPath>
<clipPath id="clip1_123_137">
<rect width="402.812" height="102.547" fill="white" transform="translate(0.54834 -0.842499)"/>
</clipPath>
<clipPath id="clip2_123_137">
<rect width="402.812" height="102.547" fill="white" transform="translate(0.54834 -0.842499)"/>
</clipPath>
<clipPath id="clip3_123_137">
<rect width="402.812" height="102.547" fill="white" transform="translate(0.54834 -0.842499)"/>
</clipPath>
<clipPath id="clip4_123_137">
<rect width="275.967" height="102.547" fill="white" transform="translate(127.394 3.1575)"/>
</clipPath>
<clipPath id="clip5_123_137">
<rect width="275.967" height="102.547" fill="white" transform="translate(127.394 3.1575)"/>
</clipPath>
<clipPath id="clip6_123_137">
<rect width="275.967" height="69.6536" fill="white" transform="translate(127 9)"/>
</clipPath>
<clipPath id="clip7_123_137">
<rect width="275.967" height="69.6536" fill="white" transform="translate(127 9)"/>
</clipPath>
<clipPath id="clip8_123_137">
<rect width="262.169" height="16.4501" fill="white" transform="translate(131.394 83.6536)"/>
</clipPath>
<clipPath id="clip9_123_137">
<rect width="262.169" height="16.4501" fill="white" transform="translate(131.394 83.6536)"/>
</clipPath>
<clipPath id="clip10_123_137">
<rect width="110.402" height="100.621" fill="white" transform="translate(25 6)"/>
</clipPath>
<clipPath id="clip11_123_137">
<rect width="89" height="82" fill="white" transform="translate(25.4517 5.87958)"/>
</clipPath>
</defs>
</svg>
